<svg viewBox="0 0 509.95 190.86" xmlns="http://www.w3.org/2000/svg"><g fill="#a90533"><path d="m123.56 150.61h48.73l1.57-18.2h-30.52l2.49-28.79h26.59l1.5-17.3h-26.59l2.5-28.77h30.51l1.5-17.3h-48.72l-9.56 110.35zm73.24-64.12c-5.56.15-10.16 4.39-10.76 9.92-.51 5.09 3.21 9.63 8.3 10.14.31.03.63.05.95.05 5.56-.15 10.16-4.39 10.76-9.92.28-2.61-.59-5.21-2.39-7.13-1.73-1.98-4.24-3.1-6.87-3.05zm192.82-46.23h-53.87l-1.5 17.3h17.83l-8.06 93.06h18.21l8.06-93.06h17.82s1.5-17.3 1.5-17.3zm38.94 46.07h-16.25l4-46.07h-18.23l-9.54 110.35h18.21l4.15-47.89h16.23l-4.13 47.89h18.2l9.54-110.35h-18.2l-3.99 46.07zm38.39-43.04c-1.08-1.16-2.59-1.8-4.17-1.77-3.46.08-6.32 2.74-6.65 6.18-.34 3.03 1.85 5.77 4.88 6.11.22.02.45.04.67.03 3.45-.07 6.31-2.71 6.65-6.15.19-1.59-.32-3.19-1.38-4.39zm-4.23-.83c1.32-.03 2.6.5 3.51 1.45.91 1.01 1.34 2.36 1.19 3.71-.3 2.9-2.7 5.14-5.62 5.22-1.32.03-2.6-.5-3.51-1.45-.91-1.02-1.34-2.37-1.19-3.72.3-2.88 2.67-5.09 5.56-5.21z"/><path d="m465.16 46.41c.06-.49-.1-.97-.42-1.34-.48-.47-1.14-.71-1.8-.67h-2.81l-.52 6.14v.16h1.25l.19-2.2h1.22l1.32 2.2h1.56l-1.45-2.4c.83-.28 1.4-1.02 1.47-1.89zm-3.87-.86h1.45c.34-.04.68.07.95.29.14.17.2.39.16.61 0 .61-.54.97-1.29.97h-1.45l.19-1.88z"/><path d="m417.43 0h-324.91c-52.62 0-92.52 42.81-92.52 95.43s39.9 95.43 92.52 95.43h324.91c52.62 0 92.52-42.81 92.52-95.43s-39.91-95.43-92.52-95.43zm78.26 95.43c0 44.76-33.46 81.17-78.26 81.17h-324.91c-44.76 0-78.26-36.37-78.26-81.17s33.45-81.19 78.26-81.19h324.91c44.76 0 78.26 36.43 78.26 81.19z"/><path d="m113.15 89.96c2.58-5.19 4.11-10.83 4.5-16.61 1-11.64-1.03-20.37-6.1-25.89-4.36-4.77-11.03-7.19-19.75-7.19h-26.07l-9.54 110.35h18.21l3.97-45.88h6.82l10.39 45.93h19.22l-12.54-49.84c4.61-2.48 8.4-6.26 10.9-10.87zm-12.77-17.91c-.22 2.24-.6 4.46-1.15 6.65-.43 1.87-1.22 3.64-2.34 5.21-.09.12-.17.2-.26.31l-.17.28c-.84 1.22-1.99 2.19-3.35 2.79-1.92.74-3.97 1.09-6.02 1h-8.9l3.1-31.8h6.6c2.43-.09 4.85.24 7.17.97 1.62.54 3.01 1.6 3.97 3.01.95 1.5 1.48 3.22 1.54 4.99.12 2.2.06 4.4-.19 6.59zm174.03-13.69c-.67-3.39-2.14-6.57-4.28-9.28-2.28-2.8-5.21-5.01-8.52-6.44-4.12-1.71-8.55-2.53-13.01-2.4h-23.78l-9.51 110.37h22.52c10.42 0 18.37-2.68 23.62-7.97s8.31-12.85 9.16-22.61l.52-6.05c.49-5.82 0-10.62-1.45-14.18-1.19-2.9-3.22-5.37-5.82-7.11 1.01-.66 1.98-1.38 2.91-2.15 3.16-2.57 5.46-6.04 6.6-9.95.73-2.51 1.19-5.09 1.38-7.7l.33-3.93c.29-3.54.06-7.11-.68-10.59zm-19.51 57.46c-.23 2.41-.54 4.63-.93 6.66-.33 1.89-1.07 3.7-2.15 5.28-1.11 1.53-2.62 2.74-4.36 3.48-2.37.93-4.91 1.35-7.45 1.25h-6.65l2.91-31.68h6.97c1.73-.04 3.46.16 5.14.6.49.11.98.26 1.45.44 1.52.56 2.83 1.57 3.74 2.91.89 1.4 1.39 3 1.45 4.66.14 2.14.1 4.28-.1 6.42h-.01zm3.88-45.1c-.13 3.69-1.39 7.24-3.62 10.18-1.81 1.85-4.22 2.98-6.79 3.19-1.24.21-2.5.31-3.75.31h-7.06l2.56-26.61h1.45v-.17h5.06c2.39-.11 4.77.32 6.97 1.25 1.25.43 2.37 1.18 3.23 2.18 1.74 2.12 2.39 5.36 1.96 9.7v-.03zm60.4-30.48h-15.14l-34.19 110.35h18.36l6.53-23.12h18.69l2.53 23.12h18.26zm-20.8 71.28 10.55-40.56h.31l3.65 40.56h-14.5z"/></g></svg>