<svg height="50" width="325" xmlns="http://www.w3.org/2000/svg"><g fill="#6d6e71"><path d="M88.39 37.91v-13.5H76.4v13.5h-8.03V5.59h8.03v12.36h11.99V5.59h8.03v32.32z"/><path d="M111.5 38.39c-7.7 0-12.8-4.72-12.8-12.64s5.15-12.58 12.74-12.58 12.8 4.66 12.8 12.58c.05 7.92-5.1 12.64-12.74 12.64m0-19.36c-3.31 0-4.83 3.04-4.83 6.78s1.46 6.83 4.77 6.83 4.83-3.04 4.83-6.83c.05-3.74-1.46-6.78-4.77-6.78m44.68 18.88V24.08c0-2.55-.65-4.34-3.14-4.34s-3.69 2.6-3.9 4.18v13.99h-7.81V24.08c0-2.55-.65-4.34-3.15-4.34s-3.69 2.6-3.9 4.18v13.99h-7.82V13.72h7.27l.43 3.69c1.68-2.6 3.85-4.23 7.1-4.23s5.86 1.41 7 4.5c1.95-2.66 4.23-4.5 7.86-4.5 4.99 0 7.81 3.15 7.81 9.11v15.56h-7.76v.05zm17.9-10.2c.16 3.58 2.87 4.99 5.96 4.99 2.49-.03 4.9-.8 6.94-2.22l2.55 4.5s-3.31 3.42-10.63 3.42-12.69-4.5-12.69-12.58 5.37-12.64 12.64-12.64 11.33 5.1 11.33 12.47v2.06h-16.11zm4.5-9.33c-2.93 0-4.39 2.22-4.61 4.61h8.89c0-2.49-1.41-4.61-4.28-4.61m36.44 19.58-2.98-8.3h-13.99l-2.98 8.3h-3.74l11.71-31.34h4.23l11.82 31.34zm-9.92-27.82-5.96 16.43h11.88l-5.91-16.43zm31.4 27.82-.54-3.58a8.578 8.578 0 0 1-7.7 4.07c-5.91 0-9.65-5.04-9.65-11.82s4.18-11.77 10.14-11.77a7.846 7.846 0 0 1 7.27 4.28V5.64h3.58v32.32h-3.09zm-7.16-20.17c-4.23 0-7 4.01-7 8.84s2.55 8.84 6.78 8.84 7-4.01 7-8.84-2.6-8.84-6.78-8.84m24.67 20.17h-3.8l-8.67-22.61h3.85l6.73 19.09 6.78-19.09h3.8l-8.68 22.61zM266.7 10.3a2.516 2.516 0 0 1-2.49-2.55 2.516 2.516 0 0 1 2.55-2.49 2.51 2.51 0 0 1 2.49 2.49c0 1.41-1.14 2.55-2.55 2.55zm-1.84 5.05h3.63v22.61h-3.63zm20.77 20.99a9.309 9.309 0 0 1-6.35 2.06c-3.34-.02-6.5-1.49-8.68-4.01l2.11-2.22a9.58 9.58 0 0 0 6.67 3.31c2.93 0 4.83-1.19 4.83-3.42s-2.33-2.98-3.58-3.53c-1.3-.43-3.31-1.03-4.39-1.52-1.08-.43-4.5-1.84-4.5-5.75s3.36-6.51 8.03-6.51c2.87-.04 5.63 1.05 7.7 3.04l-1.68 2.44a9.027 9.027 0 0 0-6.02-2.6c-2.55 0-4.66 1.03-4.66 3.2s2.17 2.93 3.69 3.47c1.46.54 3.14 1.03 4.23 1.46s4.66 1.9 4.66 5.75a6.17 6.17 0 0 1-2.06 4.83m14.15 2.05c-6.34 0-10.68-4.66-10.68-11.77s4.34-11.82 10.68-11.82 10.68 4.66 10.68 11.82-4.28 11.77-10.68 11.77m0-20.6c-4.45 0-6.94 3.63-6.94 8.89s2.49 8.84 6.94 8.84 6.94-3.58 6.94-8.84-2.49-8.89-6.94-8.89m25.06.87c-.5-.19-1.04-.28-1.57-.27-1.21-.01-2.39.37-3.36 1.08a8.152 8.152 0 0 0-3.25 5.42v13.06h-3.58v-22.6h3.31l.27 4.56c1.19-2.6 3.8-5.04 6.94-5.04.61-.01 1.21.08 1.79.27l-.54 3.53zm-284.33 5.8-1.03-1.03L23.92 7.87 10.47 21.32v13.07c.02 1.91 1.56 3.46 3.47 3.47h15.89l12.15 12.15V37.86h6.78c1.91-.02 3.46-1.56 3.47-3.47v-9.92H40.51z"/><path d="M41.81 0H20.99L0 20.99h5.97l18-18 18 18H62.8z"/></g></svg>