<svg height="65" width="197.46" xmlns="http://www.w3.org/2000/svg"><path d="M84.5 34.21c-.07 9-7.42 16.24-16.42 16.17-8.9-.07-16.1-7.27-16.17-16.17.07-9 7.42-16.24 16.42-16.17 8.9.07 16.1 7.27 16.17 16.17zm-7.13 0c0-5.84-4.24-9.84-9.16-9.84s-9.16 4-9.16 9.84 4.24 9.84 9.16 9.84 9.16-4.06 9.16-9.84zm42.28 0c-.07 9-7.42 16.24-16.42 16.17-8.9-.07-16.1-7.27-16.17-16.17.07-9 7.42-16.24 16.42-16.17 8.9.07 16.1 7.27 16.17 16.17zm-7.13 0c0-5.84-4.24-9.84-9.16-9.84s-9.16 4-9.16 9.84 4.24 9.84 9.16 9.84 9.16-4.06 9.16-9.84zm40.82-15.26v29.16c0 12-7.07 16.89-15.44 16.89-6.3.04-12-3.75-14.4-9.57l6.21-2.58c1.3 3.4 4.54 5.68 8.18 5.76 5.35 0 8.67-3.3 8.67-9.52v-2.33h-.25c-2.17 2.43-5.3 3.78-8.55 3.69-8.12 0-15.56-7.07-15.56-16.18s7.44-16.3 15.56-16.3c3.24-.08 6.36 1.25 8.55 3.63h.25v-2.65zm-6.27 15.32c0-5.72-3.82-9.9-8.67-9.9s-9.04 4.18-9.04 9.9 4.12 9.78 9.04 9.78c4.85 0 8.67-4.12 8.67-9.78zM164.5 1.86v47.6h-6.96V1.86zm27.11 37.69 5.54 3.69a16.16 16.16 0 0 1-13.53 7.2c-8.78.12-15.99-6.89-16.12-15.67v-.58c0-9.66 6.95-16.24 15.32-16.24s12.55 6.71 13.9 10.33l.74 1.85-21.71 8.99a8.261 8.261 0 0 0 7.87 4.92 9.26 9.26 0 0 0 8-4.5zm-17.04-5.84 14.51-6.03c-.8-2.03-3.2-3.44-6.03-3.44-4.92.23-8.72 4.39-8.49 9.31v.16zM25.58 29.98v-6.89H48.8c.24 1.37.36 2.77.34 4.16 0 5.17-1.41 11.56-5.97 16.12-4.43 4.61-10.09 7.07-17.59 7.07-13.9 0-25.59-11.32-25.59-25.22S11.69 0 25.59 0c6.46-.1 12.69 2.4 17.28 6.95l-4.86 4.86c-3.33-3.21-7.8-4.98-12.43-4.92-9.99 0-18.09 8.1-18.09 18.09v.24c-.13 9.99 7.86 18.2 17.85 18.33h.24c6.58 0 10.33-2.64 12.74-5.05 1.95-1.95 3.23-4.73 3.74-8.53H25.59z" fill="#6d6e71"/></svg>