<svg height="50" width="218.53" xmlns="http://www.w3.org/2000/svg"><g fill="#6d6e71"><path d="M0 0v49.33h16.55V33.8h11v15.53H44.1V21.31l-33.13-9.5V0z"/><path d="M122.67 25.18c-5.77-5.77-15.12-5.77-20.88 0a14.767 14.767 0 0 0-3.13 4.61c-.77 1.79-1.15 3.72-1.14 5.67a14.41 14.41 0 0 0 4.26 10.31 14.81 14.81 0 0 0 4.66 3.09c3.7 1.52 7.85 1.52 11.55 0 1.74-.73 3.32-1.78 4.67-3.09 2.75-2.72 4.29-6.44 4.27-10.31.01-1.95-.37-3.88-1.14-5.67a14.91 14.91 0 0 0-3.12-4.61m-2.81 13.83c-.35 1.02-.9 1.95-1.63 2.74-.72.77-1.6 1.37-2.57 1.78-2.21.88-4.67.88-6.88 0a7.656 7.656 0 0 1-2.57-1.78 7.952 7.952 0 0 1-1.63-2.74c-.78-2.31-.78-4.81 0-7.11a7.86 7.86 0 0 1 1.63-2.74 7.38 7.38 0 0 1 2.57-1.78c2.21-.88 4.67-.88 6.88 0 .97.41 1.85 1.02 2.57 1.78.72.8 1.28 1.73 1.63 2.74.78 2.31.78 4.81 0 7.11m68.86-12.17V21.6h-21.88v5.47h13.98l-14.49 16.97v5.29h23.17v-5.47h-15.39l14.6-17.02zm14.43 17.03 14.59-17.02v-5.24h-21.88v5.47h13.98l-14.49 16.97v5.29h23.17v-5.47h-15.38zM84.6 21.86a12.654 12.654 0 0 0-12.36 1.62V11.81H66.1v37.52h6.14V34.58c0-2.81.81-7.51 6.21-7.51 4.96 0 6.71 4.05 6.71 7.51v14.75h6.13V32.56c0-5.04-2.44-8.94-6.7-10.7m68.59 14.89c0 .87-.13 1.73-.36 2.57-.23.85-.62 1.65-1.15 2.35-.55.72-1.26 1.32-2.07 1.73-2.03.88-4.34.88-6.37 0-.81-.41-1.52-1-2.07-1.73-.53-.7-.92-1.5-1.15-2.35-.23-.84-.35-1.7-.36-2.57V21.56h-6.09v15.8c0 5.88 2.6 9.8 7.82 11.76 3.28 1.18 6.87 1.18 10.14-.02 6.41-2.42 7.76-7.73 7.76-11.76V21.63h-6.1z"/></g></svg>