<svg xmlns="http://www.w3.org/2000/svg" width="1375.671" height="875.792" preserveAspectRatio="xMidYMid slice"><path fill="rgba(35,55,69,.25)" d="M28.153 402.036c0 .065-.015.133-.02.2v.01ZM1373.737 100.52c-.123-1.222-1.327-12.018-5.891-14.3-1.48-.741-3.5-1.911-5.844-3.271-3.038-1.763-6.485-3.757-9.776-5.408-5.265-2.63-7.983-9.125-7.983-11.315 0-2.841-2.68-14.608-4.108-19.175-1.323-4.228-4.073-13.028-10.16-13.028-.746 0-1.829-.035-3.081-.078-10.43-.341-20.831-.323-23.438 3.847l-.085.133c-2.916 4.662-5.022 8.036-5.022 14.125 0 2.883-1.322 6.012-2.6 9.038a30.292 30.292 0 0 0-2.6 8.186c-.354 3.362-1.278 9.283-2.175 15.009l-1.583 10.4c-1.343 9.391-3.607 15.8-6.934 19.6-3.625 4.146-11.708 8.812-17.524 11.552-2.71 1.275-7.272 2.49-11.68 3.665-3.414.912-6.641 1.771-9.048 2.653a43.265 43.265 0 0 1-8.724 1.581c-4.937.591-10.531 1.265-14.31 3.427-1.944 1.11-5.691 2.893-9.659 4.782-14.1 6.706-19.215 9.461-19.844 11.567a30.6 30.6 0 0 1-2.618 4.9 55.548 55.548 0 0 0-5.478 10.986 24.456 24.456 0 0 1-4.742 7.82c-1.653 2.056-3.211 4-3.677 6.18-.9 4.181-.9 7.495-.9 12.993s0 8.241-2.913 11.951a19.385 19.385 0 0 0-2.415 3.87 8.767 8.767 0 0 1-3.159 3.73c-2.327 1.831-10.192 3.422-16.51 4.7a101.575 101.575 0 0 0-10.012 2.329 32.568 32.568 0 0 1-6.891 1.23c-3.9.413-7.585.807-9.145 3.7-2.227 4.131-1.879 7.394-1.287 10.651a20.384 20.384 0 0 0 .666 2.412c.932 2.923 2.089 6.558-.764 10.841-4.2 6.3-14.436 18.416-15.648 19.385-.521.413-3.372 2.182-6.132 3.893-4.864 3.013-10.377 6.43-11.845 7.713-7.938 6.943-12.209 11.357-13.068 13.5-.962 2.407-8.306 7.707-12.412 9.756-3.82 1.909-16.209 3.577-18.746 2.813-2.452-.736-11.68-3.264-14.691-4.085.125-3.021.687-12.539 2.788-18.6 2.615-7.562 6.353-15.8 8.5-18.762 2.572-3.532 3.537-11.031 1.783-13.837a142.77 142.77 0 0 0-1.678-2.563c-1.9-2.853-6.332-9.526-6.53-10.836-.173-1.225-4.238-14.513-8.2-16.329a2.426 2.426 0 0 0-2.392.118c-2.455 1.566-5.8 5.869-8.018 8.717-.754.969-1.465 1.884-1.738 2.159a23.87 23.87 0 0 1-5.458 3.873c-.879-.736-2.36-2.2-2.53-3.452a1.325 1.325 0 0 1 .305-1.067c2.653-3.316 6.853-17.632 7.75-21 .283-1.057.666-2.107 1.035-3.121 1.137-3.126 2.317-6.357.245-9.468a28.837 28.837 0 0 0-2.79-3.394c-1.651-1.808-3.074-3.369-3.074-5.165 0-.478.012-.962.025-1.48.073-3.286.16-7.011-3.033-8.609-1.433-.714-3.865-.974-6.442-1.25-2.846-.3-6.388-.676-7.4-1.7-2.542-2.537-10.59-5.821-13.476-6.144a13.61 13.61 0 0 1-2.638-1.014c-2.71-1.222-6.087-2.738-8.552-1.523a4.479 4.479 0 0 0-2.315 3.2 53.111 53.111 0 0 0-1.12 7.5c-.2 2.089-.391 4.06-.937 4.719-.326.388-.912.957-1.6 1.616-2.382 2.307-5.348 5.178-5.348 7.863a17.628 17.628 0 0 0 .581 4.278 23.882 23.882 0 0 1 .581 3.354c.088.974.088.974-1.741 1.29a17.86 17.86 0 0 0-3.534.9c-7.029 2.7-11.1 7.868-11.788 14.934a90.634 90.634 0 0 1-2.069 11.3c-1.095 4.794-2.036 8.935-1.693 12.376a38.449 38.449 0 0 0 5.388 15.573c3.023 4.915 7.389 13.111 7.627 15.934.278 3.369-3.457 29-5.3 31.909-.536.839-1.152 2.052-1.864 3.454-1.756 3.452-4.689 9.23-7.094 9.571-2.56.368-5.443-.185-6.71-1.283-.536-.468-.536-.827-.536-.947 0-3.209-5.736-12.98-8.063-16.081-2.575-3.439-3.993-5.33-2.956-10.273 1.3-6.167.789-12.066-1.325-15.392-.408-.639-.812-1.195-1.2-1.733-1.588-2.177-2.635-3.615-1.808-7.76 1.185-5.909 1.185-10.686 1.185-16.735 0-1.2-.035-2.633-.068-4.151-.145-6.109-.343-14.473 1.39-18.163a83.209 83.209 0 0 0 4.01-10.746l.965-2.988c1.009-3.031.351-6.047-1.536-7.021-.752-.391-2.738-.959-5 2.122l-.04.06-.035.058c-2.217 3.845-7.537 8.006-10.338 8.714a1.659 1.659 0 0 1-.932.06c-.291-.436.268-3.169 6.881-9.872 3.254-3.251 5.939-8.081 8.311-12.337.7-1.247 1.355-2.43 2-3.529l.737-1.26c2.415-4.148 4.321-7.427 7.835-8.6 4.258-1.418 9.346-5.067 11.79-6.823l.4-.286c1.7-1.217 3.725-2.089 8.033-2.377 3.031-.2 4.476-2.315 5.641-4.01.784-1.145 1.455-2.129 2.417-2.395 2.4-.654 8.071-.6 12.625-.554l3.244.023c1.185 0 2.568.143 4.036.3 3.867.4 7.527.777 9.335-1.13a3.941 3.941 0 0 0 .879-3.507 19.825 19.825 0 0 0-4.143-10.065l-.4-.581c-3.758-5.37-8.121-7.422-11.969-5.623-4.033 1.879-6.776 1.288-9.9-.273a32.737 32.737 0 0 1-1.553-.854c-2.888-1.663-6.162-3.549-12.817-.619-7.5 3.3-10.671 4.757-13.689 7.78-2.81 2.81-5.33 3.577-9.3 2.836-2.61-.488-7.054-.135-10.969.175a37.65 37.65 0 0 1-6.3.238 18.218 18.218 0 0 1-1.63-2.395c-1.866-3-3.973-6.4-6.625-6.132a17.011 17.011 0 0 0-3.021.734c-1.683.508-3.985 1.2-4.922.644a1.287 1.287 0 0 1-.539-.957c-.917-4.591-1.18-6.538 1.548-8.589 2.633-1.971 7.2-7.159 6.553-10.037a2.247 2.247 0 0 0-1.851-1.733c-2.9-.584-9.967-.461-13.358 3.6-1.3 1.566-4.479 4.5-7.542 7.337-3.745 3.457-7.276 6.723-8.429 8.369a10.313 10.313 0 0 1-7.064 4.7 20.761 20.761 0 0 1-3.256.383c-2.705.178-5.766.383-8.126 3.216-3.229 3.875-5.751 6.55-8.82 5.671a26.586 26.586 0 0 0-3.274-.661 7.659 7.659 0 0 1-2.224-.526 2.078 2.078 0 0 1 .235-.884c1.242-2.988.7-7.076-1.162-8.755a3.131 3.131 0 0 0-3.775-.348 35.807 35.807 0 0 1-5.07 2 29.425 29.425 0 0 0-6.906 2.993c-4.584 3.206-7.334 3.913-7.79 3.577a.756.756 0 0 1-.078-.336c-.273-3.529 3.9-8.6 5.19-10.067a11.773 11.773 0 0 0 1.771-3.752c1.137-3.244 2.55-7.284 7.239-8.9a53.708 53.708 0 0 0 10.889-5.5 36.218 36.218 0 0 1 5.917-3.194l1.385-.511c4.068-1.5 7.585-2.793 8.529-4.854a2.591 2.591 0 0 0 .078-2.031c-.571-1.518-2.214-5.248-5.16-7-1.738-1.04-13.7-2.908-17.687-.912-3.146 1.571-17.94 1.445-29.523-4.621-12.2-6.39-25.753-8.256-31.88-7.948-1.182.06-2.345.183-3.574.318a35.678 35.678 0 0 1-19.052-2.262l-5.9-2.327c-9.263-3.695-17.266-6.891-23.062-6.134-4.674.609-12.905.043-18.353-.331-2.109-.145-3.777-.258-4.627-.258l-4.321-.063c-8.159-.133-25.137-.411-30.239.053a84.509 84.509 0 0 1-10.989-.411 99.609 99.609 0 0 0-13.854-.443c-6.54.566-92.407-5.045-97.252-5.5-.959-.09-5.31-.368-11.893-.792-25.2-1.616-84.226-5.4-96.738-7.865-7.307-1.44-20.886-3.444-35.261-5.563-18.4-2.713-37.425-5.518-45.386-7.444-10.305-2.492-72.824-18.348-73.453-18.509.033.008-54.922-15.61-54.922-15.61l-39.335-10.988c-8.181-2.317-35.013-9.882-36.784-9.882a20.6 20.6 0 0 1-3.091-1.155c-3.72-1.57-6.077-2.457-7.442-1.55a1.9 1.9 0 0 0-.844 1.646c0 .864-.065 2.182-.143 3.7a81.571 81.571 0 0 0-.14 9.118 33.806 33.806 0 0 0 .569 3.63c.626 3.276 1.335 6.989-.118 9.536a17.763 17.763 0 0 1-1.964 2.788c-1.237 1.493-2.034 2.6-2.8 6.255a103.655 103.655 0 0 0-.684 3.71c-.749 4.353-1.681 9.769-3.928 11.084-3.7 2.162-4.521 2.179-5.834.123a23.718 23.718 0 0 0-2.262-2.818c-1.035-1.17-2.605-2.936-2.457-3.7.053-.283.541-.556.751-.659.7-.351 1.445-.686 2.164-1.009 3.549-1.6 7.222-3.251 8.053-7.69l.218-1.137c.829-4.271 1.688-8.684-2.733-10.385-.944-.361-1.891-.8-2.9-1.27-2.886-1.343-6.159-2.863-10.285-2.863-1.911 0-5.831-2.573-9.291-4.837-5.563-3.645-10.818-7.087-13.852-5.022l-.2.138-.135.205a17.561 17.561 0 0 0-2.006 13.421c1.859 6.976 1.656 22.116-.346 25.718-2.284 4.116 1.142 8.326 2.5 9.754-.318 1.525-1.35 5.568-3.667 7.888-3.329 3.326-1.768 9.544-1.328 11.051-.734 3.489-1.879 8.722-2.192 9.654-.1.308-.817 1.661-1.5 2.963-1.994 3.775-5.328 10.095-6.337 14.127-1.328 5.31-11.284 28.025-15.067 35.582-1.077 2.157-2.725 5.914-4.634 10.265-4.263 9.729-10.708 24.435-13.394 26.524l-.834.641c-4.025 3.058-5.709 4.8-6.994 17.216-.426 4.136-.636 8.286-.839 12.3-.458 9.06-.889 17.619-3.682 25.069-2.269 5.418-8.527 20.079-9.982 22.258-.446.674-1.145 1.571-1.951 2.61-2.5 3.216-5.606 7.217-5.606 10.029a40.066 40.066 0 0 0 .486 4.982 28.6 28.6 0 0 1 .446 6.788 25.046 25.046 0 0 0 .15 7.2l.3 2.748c.158 1.6-.739 5.761-1.693 10.175-1.606 7.419-3.6 16.657-2.417 21.69a127.458 127.458 0 0 0 6.377 18.331l1.032 2.525a11.253 11.253 0 0 1 .446 4.859c-.145 3-.326 6.733 2.9 11.462 4.887 7.389 10.651 5.1 13.416 4 .263-.1.574-.225.834-.318a9.247 9.247 0 0 1-.361 2.965c-.539 2.407-1.23 5.546.8 8.84-3.1-.546-7.7-1.162-9.842 1.691-1.814 2.4-1.25 6.49 1.716 12.5.827 1.35 1.766 2.768 2.763 4.271 1.974 2.973 5.275 7.955 5.223 9.15l-.015.085v.105a14.788 14.788 0 0 1-1.6 2.886c-2.362 3.752-5.932 9.421-3.812 14.927l.634 1.591c2.883 7.214 6.828 17.1 9.549 22.261.969 1.839 2.222 3.832 3.432 5.764 2.257 3.6 4.812 7.675 4.812 9.852 0 4.213 4.945 15.64 6.232 17.962a39.306 39.306 0 0 1 1.631 3.905c1.543 4.008 3.462 8.995 5.856 11.167a13.614 13.614 0 0 0 5.653 2.725 16.651 16.651 0 0 1 6.8 3.367c4.326 3.785 10.235 9.639 12.234 12.5 1.33 1.9 3.747 3.239 6.31 4.654a32.569 32.569 0 0 1 4.907 3.111c3.612 3.011 4.754 4.078 4.754 6.558 0 3.4 1.408 4.168 3.742 5.443.446.243.949.519 1.508.847 4.619 2.693 7.495 5.5 8.093 7.9a66.549 66.549 0 0 0 2.846 7.149c2.325 5.388 5.508 12.767 5.508 15.69 0 .133.213 13.276 3.612 13.955l.08.018.083.005c1.092.073 42.473 5.679 63.716 10.671.594.2 2.663 2.307 4.484 4.168 3.577 3.642 8.474 8.632 13.694 11.61 4.644 3.246 77.9 49.712 80.206 50.18.073.015 20.592 2.918 20.592 2.918 40.679 5.779 55.34 7.778 56.59 7.49l.18-.043.158-.093c1.716-.984 2.532-4.757 3.577-10.4.213-1.152.466-2.52.661-3.289 5.719.473 42.428 5.531 45.118 7.026 3.239 1.944 24.688 18.521 28.473 25.279 1.548 2.765 4.353 6.733 7.319 10.934 4.844 6.853 10.333 14.621 11.362 18.564a164.572 164.572 0 0 0 9.939 26.005c3.018 5.769 9.721 9.661 13.321 11.755l1.027.6a18.513 18.513 0 0 1 2.961 2.239 53.971 53.971 0 0 0 5.651 4.373l1.13.779c4.874 3.389 9.08 6.31 16 .6 3.642-3.011 6.122-6.7 8.311-9.944 1.881-2.8 3.662-5.438 5.826-7.091 4.724-3.615 12.144-4.589 20.357-2.668 9.043 2.109 19.255 6.41 20.615 8.679a26.826 26.826 0 0 0 3.534 4.151c2.054 2.139 4.386 4.561 5.345 6.956 1.378 3.444 3.993 8.291 6.3 12.57l1.856 3.462c1.355 2.557 4.108 7.239 6.773 11.763 2.407 4.1 4.682 7.961 5.363 9.326.255.508.629 1.358 1.06 2.337 2.745 6.24 5.982 13.058 9.591 14.984l.318.168c4.336 2.31 6.255 3.449 6.255 6.247a126.635 126.635 0 0 0 2.328 19.61c1.516 7.87 3.76 12.8 11.846 17.887 8.113 5.112 16.7 8.745 23.6 11.665 7.377 3.119 18.474 6.493 21.73 6.167 2.8-.278 4.844-1.343 5.751-3 .859-1.553.716-3.487-.416-5.754-1.5-2.986-2.3-6.951-3.086-10.791a65.906 65.906 0 0 0-1.761-7.267c-.764-2.287-1.673-6.43-1.673-13.2 0-1.245-1.05-2.147-2.064-3.023-1.693-1.463-2.006-1.994-1.583-2.7.937-1.563 2.064-2.229 3.933-3.334a45.954 45.954 0 0 0 4.118-2.663c.947-.7 1.761-1.217 2.475-1.668 2.743-1.756 4.01-2.77 2.911-6.63a12.858 12.858 0 0 0-1.648-3.542c-.721-1.145-.767-1.213.017-2.337a44.081 44.081 0 0 1 2-2.623 18.679 18.679 0 0 0 2.44-3.609 3.622 3.622 0 0 0-.346-3.517 11.57 11.57 0 0 1 1.317-.13 32.1 32.1 0 0 1 4.116.068c2.51.16 4.326.276 7.234-1.738 1-.694 1.909-1.2 2.708-1.646 2.194-1.222 3.925-2.189 4.191-5.35a16.351 16.351 0 0 0-.233-3.559c-.408-2.9-.268-3.419 1-3.712 3.905-.9 7.675-1.691 10.9-1.42 4.213.351 17.266-7.68 20.437-11.432a84.734 84.734 0 0 0 1.721-2.112c2.568-3.209 5.223-6.533 9.7-8.547 5.892-2.653 10.042-4.977 9.7-10.758-.305-5.22-3.489-8.364-6.555-10.751a50.531 50.531 0 0 0-6.991-4.2 99.554 99.554 0 0 0 3.2-1.16 14.006 14.006 0 0 0 3.908-2.555c2.177-1.824 2.422-1.714 3.1-.959a38.683 38.683 0 0 0 3.875 3.642 18.4 18.4 0 0 1 2.981 2.9c1.095 1.533 2.1 1.994 3.913 2.831 1.009.461 2.389 1.1 4.306 2.164 5.486 3.046 13.121 2.853 17.331.909a34.522 34.522 0 0 0 2.026-1.042c3.119-1.688 6.064-3.279 10.736-.731l1.976 1.09c4.995 2.755 7.277 4.013 12.67 4.551a14.4 14.4 0 0 1 5.107 1.713c2.367 1.17 4.819 2.382 7.728-.3a30.378 30.378 0 0 0 2.725-3.007c2.725-3.3 4.426-5.085 7.723-3.437 1.658.829 3.284 1.508 4.86 2.162 3.717 1.545 6.923 2.878 8.173 5.375a5.337 5.337 0 0 1 .316 3.066 4.581 4.581 0 0 0 .739 3.7c1.032 1.2 3.021 1.809 6.643 2.024a73.7 73.7 0 0 1 9.15 1.155c3.554.626 6.122 1.082 9.035-.085 4.116-1.648 7.024-2.317 8.772-.569 3.058 3.059 5.16 4.178 6.816 3.622.744-.245 1.686-.947 1.961-2.881.348-2.435-.784-4.892-1.693-6.863a12.828 12.828 0 0 1-.947-2.442c.807.023 3.171 1.065 5.769 3.407 1.556 1.4 9.546 8.437 14.38 9.817l.16.048c3.307.944 5.691 1.623 7.317.518a3.237 3.237 0 0 0 1.34-2.515c.346-3.447-2.911-7.89-5.378-8.3l.045.01c-1.666-.524-8.294-7.547-8.276-9.208a11.809 11.809 0 0 1 4.1-5.594c1.681-1.117 3.928-4.328 3.928-6.084a1.7 1.7 0 0 0-.749-1.493 22.11 22.11 0 0 1-.766-.779c-2.041-2.127-5.841-6.092-8.795-3.8a3.237 3.237 0 0 1-2.623.842 3.787 3.787 0 0 1-2.1-2.36 7.04 7.04 0 0 1-.822-2.7c.048-.053.328-.268 1.623-.506a7.626 7.626 0 0 0 5.035-4.1c1.24 1.623 3.018 3.121 5.245 2.961a12.943 12.943 0 0 0 5.939-2.292 17.427 17.427 0 0 1 5.25-2.365 14.787 14.787 0 0 1 4.456-.381 12.039 12.039 0 0 0 6.172-1.14 25.565 25.565 0 0 1 7.059-1.856 24.974 24.974 0 0 0 3.5-.691l.085-.028.078-.037c1.728-.8 2.9-3.447 4.025-6.009.323-.731.756-1.708 1.112-2.357.225.606.461 1.508.651 2.232.889 3.389 2.232 8.509 6.846 7.978 7.908-1.13 10.157-3.94 10.591-6.24a1.1 1.1 0 0 0 .215-.06 1.171 1.171 0 0 0 .363-.288 18.933 18.933 0 0 1 2.891.564 10.555 10.555 0 0 0 3.622.523l14.446-2.021a20.443 20.443 0 0 0 3.945-1.052c2.718-.922 5.062-1.728 8.639.063a33.329 33.329 0 0 0 9.133 2.653c2.567.471 4.782.877 5.972 1.833a35.909 35.909 0 0 1 3.539 3.514 33.268 33.268 0 0 0 6.42 5.829c3.79 2.329 15.728 6 19.563 5.679 2.257-.185 4.343-1.881 6.555-3.677a19.532 19.532 0 0 1 5.045-3.334c1-.356 1.909-.776 2.786-1.182 2.672-1.237 4.98-2.3 9.172-1.107l1.628.461c5.305 1.483 9.884 2.763 13.053 6.906A58.848 58.848 0 0 0 1088 731.938a43.748 43.748 0 0 0 6.745 3.888 15.658 15.658 0 0 1 1.9 1.014c.423.316.423.316.391 2.663l-.022 2.409a89.411 89.411 0 0 0 1.069 10.088c.546 3.91 1.112 7.953.969 9.779-.308 4.028-.281 8.617 2.259 12.111 1.333 1.829 3.59 2.8 5.406 3.572a8.2 8.2 0 0 1 2.462 1.34c-.068.534-.153 1.1-.238 1.7a48.018 48.018 0 0 0-.639 7.119c0 3.477 2.608 8.977 5.05 13.867 1.375 2.743 5.035 5.558 7.71 7.615.919.711 1.721 1.323 2.069 1.676.223.223.223.223.145.777a7.279 7.279 0 0 0 .764 4.646c1.057 2.3 3.184 3.965 5.06 5.436a12.161 12.161 0 0 1 3.342 3.281 13.322 13.322 0 0 1 .987 3.254 13.354 13.354 0 0 0 2.635 6.232c1.586 1.934 4.667 3.016 7.645 4.06 2.267.794 4.611 1.613 5.353 2.568 1.979 2.54 8.487 13.331 9.3 17.96 1.132 6.41 8.071 5.543 11.8 5.075 4.839-.6 8.764-3.853 11.665-9.649a57.945 57.945 0 0 0 3.609-10.623 49.559 49.559 0 0 1 1.633-5.365 23.289 23.289 0 0 0 .626-13.837 24.839 24.839 0 0 1-.541-11.064c.113-.839.323-1.751.548-2.725.919-3.988 2.069-8.952-1.9-14.909-4.581-6.873-22.962-45.594-24.432-50.3-1.5-4.794-17.75-36.466-20.557-39.274-2.437-2.435-2.931-3.933-2.037-6.17 1.215-3.033 1.884-9.974 1.2-12.379a14.577 14.577 0 0 0-2.167-3.7c-1.273-1.816-2.853-4.08-3.314-6.067l-.218-.937a41.506 41.506 0 0 1-1.486-12.311l.038-.747c.288-5.513.887-16.986 2.232-21.832.388-1.4.789-3.023 1.215-4.737 1.06-4.253 2.375-9.551 3.494-11.046a25.865 25.865 0 0 0 1.828-3.081c1.4-2.585 3.136-5.806 5.711-7.645 7.008-5.007 15.5-11.563 16.114-14.345l.155-.7c.616-2.871 1.766-8.219 4.464-11.154 1.548-1.693 3.256-3.474 4.907-5.2 1.771-1.846 3.445-3.589 4.932-5.223 2.059-2.264 2.553-5.1 3.079-8.106a36.07 36.07 0 0 1 1.23-5.355 30.209 30.209 0 0 0 .99-4.358c.759-4.251 1.541-8.644 7.061-11.4a50.6 50.6 0 0 1 8.326-3.334 17.133 17.133 0 0 0 6.052-2.868c3.086-2.372 4.721-5.809 6.307-9.135.491-1.032 1-2.1 1.553-3.129a37.776 37.776 0 0 0 1.761-4.091c1.528-3.938 3.106-8.008 6.853-9.508a134.73 134.73 0 0 1 5.671-2.1 60.778 60.778 0 0 0 7.73-3.149c3.1-1.546 9.088-5.042 9.624-7.179a5.552 5.552 0 0 0-1.117-4.236 7.359 7.359 0 0 0-5.814-2.818h-.143c-2 .118-3.88.4-5.541.634a33.495 33.495 0 0 1-3.467.4c.291-.343.664-.747.982-1.085 2.212-2.347 5.816-6.172 3.662-11.708.416.025.894.07 1.325.108 3.382.308 9.035.819 12.657-2.55 2.257-2.1 3.362-5.375 3.276-9.736v-.6c0-2.312 0-5.481-2.5-7.81-2.525-2.352-7.154-3.329-14.062-3.011.4-.406.839-.834 1.245-1.23 4.156-4.068 10.435-10.215 8.907-15.718a94.021 94.021 0 0 0-6.167-15.568l-.183-.348-.341-.183c-.516-.276-5.1-2.625-7.683-.781-2.853 2.039-5.764 3.319-6.467 3.108a13.88 13.88 0 0 1-3.495-2.578c.634-.341 1.363-.664 2.086-.974 2.026-.867 3.492-1.5 3.492-2.873 0-.872-1.362-4.859-2.555-8.193.29-1.47 1.31-7.109.5-10.871a15.635 15.635 0 0 1-.16-4.722c.128-1.616.235-3.006-.756-4-.2-.2-.476-.493-.794-.834-2.087-2.234-4.281-4.456-6.112-4.98-.889-.256-4.066-1.638-7.259-3.071a5.792 5.792 0 0 0 3.81-1.556c2.372-2.713 2.48-7.444.9-9.416-.922-1.152-2.638-6.39-2.916-8.9-.313-2.831.115-8.95.7-9.922l.123-.205.037-.24a32.38 32.38 0 0 1 3.56-9.12c-.093.752-.326 1.814-.519 2.673-.669 2.976-1.5 6.685-.569 10.055a57.664 57.664 0 0 0 1.7 4.311c.907 2.089 1.215 2.793.872 5-.068.443-.138.862-.208 1.265-.521 3.018-.972 5.623 2.913 7.567.716.358 1.453.669 2.164.967 2.765 1.162 5.158 2.169 6.154 5.769a40.705 40.705 0 0 0 1.781 4.874c1.17 2.813 2.179 5.245 1.663 8.166-.862 4.877-1.839 10.405.083 14.886a2.978 2.978 0 0 0 3.421 1.9c3.3-.6 7.7-6.179 7.948-11.6a36.563 36.563 0 0 0-.228-5.571c-.288-2.843-.494-4.894 1.255-8.389 3.024-6.042 5.01-10.02 5.325-12.241.313-2.192-1.022-8.168-1.175-8.845l-.055-.235-.138-.2c-1.092-1.581-2.229-3.85-2.109-4.576.426-2.545-3.519-6.578-4.937-7.352-.666-.513-3.081-4.328-5.06-7.75a5.132 5.132 0 0 1 .924-1.716c.524.223 1.583.726 2.545 1.185 8.3 3.94 10.631 4.662 11.861 3.68l-.155.108c2.379-1.38 4.178-4.7 6.64-12.269 2.64-7.632 6.147-21 5.841-26.206-.288-4.889-1.44-15.856-1.448-15.966a34.374 34.374 0 0 1 .175-6.044l.248-.075c9.035-2.653 15.139-5.067 18.143-7.189l5.578-4.02c3.77-2.735 8.93-6.483 9.784-6.828 2.515-1.157 7.034-5.165 8.244-8.634a4.377 4.377 0 0 0-.073-3.509c-1.282-2.031-4.606-1.946-17.381 4.419-.348.173-.7.348-.877.433-.6.138-1.6.689-4.794 2.55-1.981 1.16-5.075 2.961-6.532 3.567a7.929 7.929 0 0 1 3.868-4.945c1.956-.979 4.458-2.585 7.109-4.283 2.993-1.921 6.092-3.908 8.8-5.263a74.708 74.708 0 0 1 8.439-3.231c4.078-1.4 7.928-2.71 9.716-4.138 2.535-2.031 3.469-8.972 3.792-12.712 1.485.423 3.9.526 7.845-.351 7.933-1.763 10.17-3.291 14.088-6.3 2.976-2.289 4.832-8.694 4.842-13.313.008-2.563-.548-4.3-1.656-5.155a2.454 2.454 0 0 0-1.987-.5c-1.638.306-2.778 2.152-4.1 4.293a12.037 12.037 0 0 1-2.562 3.362c-.93.656-2.926-.589-4.526-1.588-.719-.443-1.453-.889-2.154-1.242-.761-.779-4.411-4.291-8.489-4.579-1.2-.088-1.363-.574-1.423-.731-.293-.877.386-2.705 1.874-4.025 2.452-2.179.589-7.372-1.057-11.948a24.744 24.744 0 0 1-1.132-3.589c-.165-1.485 1.024-8.825 1.738-13.211.574-3.549.874-5.431.874-6.032 0-2.437.841-16.52 4.551-20.232l2.941-3c3.216-3.314 6.255-6.445 8.3-7.472 2.933-1.463 7.865-12.076 9.624-16.026.2-.015.466-.008.689 0a12.293 12.293 0 0 0 6.149-1.313c2.868-1.713 4.857-5.218 6.611-8.311 1.092-1.929 2.224-3.925 3.093-4.506.351-.23.882-.571 1.553-1 10.182-6.475 13.7-9.621 13.461-12.028m-92.349 18.215L1299.836 171c.1.288 2.57 7.247 7.437 8.87 2.685.894 4.7 1.458 5.881 1.766-.744 4.626-1.32 8.429-1.475 10.668-3.692.564-6.946 2.785-9.118 4.476-2.645 2.056-13.078 8.213-20.9 9.892-2.805.6-5.335 1.067-7.567 1.483-.614.113-1.2.225-1.783.331-1.285-8.306-4.111-27.5-3.893-30.584a46.034 46.034 0 0 1 .837-5.158c.631-3.179 1.28-6.47.892-9-.511-3.314.453-8.489 2.525-13.5 1.884-4.579 3.459-23.726 3.788-27.939a53.507 53.507 0 0 0 4.927-3.564m-50.291 18.1c1.571-.238 3.159-.436 4.679-.619a44.76 44.76 0 0 0 9.3-1.716c2.3-.844 5.468-1.691 8.82-2.585 4.519-1.2 9.188-2.445 12.1-3.82a93.444 93.444 0 0 0 7.82-4.158c-.636 7.692-2.047 21.905-3.462 25.344-2.267 5.5-3.269 11.044-2.685 14.841.323 2.1-.283 5.168-.872 8.136a47.363 47.363 0 0 0-.874 5.466c-.268 3.782 3.189 26.459 3.93 31.241a50.712 50.712 0 0 0-6.858 1.8c-3.62 1.28-7.332-.731-8.389-1.383-1.152-11.029-6.658-19.713-10.425-25.64a43.237 43.237 0 0 1-2.763-4.7c-2.57-5.781-3.9-11.79-3.655-16.492.261-4.967-3.5-12.677-5.754-17.286-.4-.824-.749-1.535-1.012-2.1a8.393 8.393 0 0 1 .1-6.325m-107.185 116.349c3.522-5.285 2.044-9.924 1.067-12.993a17.916 17.916 0 0 1-.589-2.1c-.549-3.011-.819-5.586 1.027-9.02.932-1.728 3.84-2.036 7.2-2.395a35.416 35.416 0 0 0 7.419-1.348c2.159-.719 5.827-1.463 9.714-2.247 7.261-1.47 14.769-2.988 17.564-5.185a11.124 11.124 0 0 0 3.86-4.6 16.639 16.639 0 0 1 2.137-3.424c3.447-4.391 3.447-8.016 3.447-13.5 0-5.511 0-8.544.842-12.464.343-1.6 1.658-3.244 3.179-5.14a26.5 26.5 0 0 0 5.177-8.627 53.84 53.84 0 0 1 5.24-10.465 29.79 29.79 0 0 0 2.865-5.463.266.266 0 0 1-.02.053c.9-1.688 11.943-6.936 18.541-10.077 4.188-1.991 7.8-3.712 9.827-4.87a20.569 20.569 0 0 1 5.9-2 10.2 10.2 0 0 0 .411 6.876c.273.6.629 1.32 1.037 2.157 2.142 4.389 5.729 11.735 5.5 16.056-.268 5.08 1.142 11.51 3.867 17.639a43.752 43.752 0 0 0 2.943 5.025c4 6.292 10.039 15.791 10.25 27.751a143.956 143.956 0 0 1-.541 14.739c-.5 6.528-.857 11.247 1.177 17.722l1.252 3.913c2.124 6.578 2.7 8.349 2.455 15.044-.208 5.859-.115 11.3-.05 13.875l-27.263-4.859-14.461-16.444-.506-.576-.734.183-34.492 8.589c-27.353 6.853-61.086 15.3-66.269 15.949a85.787 85.787 0 0 1-1.478-9.438l-.266-2.087c3.88-4.5 9.879-11.936 12.762-16.252m-22.544 24.014c3.665-2.269 5.766-3.574 6.375-4.063a14.68 14.68 0 0 0 1.195-1.2c1.04 8.381 1.488 10.5 2.392 11.257l.08.06.083.053c1.175.7 8.036-.761 68.278-15.856l33.746-8.4 13.849 15.751-3.657 20.813-.1.554.346.441a66.794 66.794 0 0 1 6.793 10.751c3.449 7.282 4.008 12.266 1.658 14.811a62.384 62.384 0 0 1-8.063 7.019l-2.748 1.1-.311.125-.208.263-4.071 5.158-48.136 11.745c-4.814.842-18.741 3.309-20.35 3.787l-.108.033-.1.053c-1.032.523-1.13 1.781-1.265 3.522-.113 1.445-.265 3.414-1.012 4.158a28.736 28.736 0 0 0-3.9 3.807 40.174 40.174 0 0 1-4.228 4.168c-.621-1.38-1.678-5.173-2.282-7.344a29.186 29.186 0 0 0-1.578-4.952l-.118-.19-.176-.14c-1.122-.892-3.3-.313-11.385 2.467-3.121 1.075-7.339 2.525-8.509 2.565a29.857 29.857 0 0 1-5.02-5.065l-3.913-6.986c-.648-2.219-1.257-5.8-.626-7.061 1.237-2.472 1.05-10.33 1-11.881v-.085l-.015-.09-5.208-29.79c-.015-.07-3.615-15.2-4.256-17.885a686.437 686.437 0 0 1 5.546-3.462m56.69 91.711c-.466 1.147-4.9 6.994-8.993 12.076l-.07.09-.055.1-8.712 16.021-4.694 1.3-.741.208-.153.757c-.153.766-3.772 18.857-4.344 22.308-.558 3.331-4.253 10.833-6.836 13.161s-15.067 7.512-17.521 7.785a35.993 35.993 0 0 0-5.463 1.518c-3.492 1.125-7.84 2.525-10.308 2.525-3.166 0-7.717-3.068-9.283-4.308l-8.8-9.366-8.742-14.944a4.854 4.854 0 0 1 1.1-3.377c1.651-1.653 9.28-12.91 9.619-17.274.118-1.548 1.33-2.41 2.73-3.409a8.263 8.263 0 0 0 3.256-3.454c.494-1.237 1.077-3.136 1.693-5.148a60.855 60.855 0 0 1 2.6-7.485c.621-1.242 4.26-3.494 7.181-5.305 3.056-1.889 5.937-3.67 7.141-5.175 1.839-2.3 4.3-11.294 5.553-16.2l2.5 4.461.055.105.078.093a30.827 30.827 0 0 0 5.744 5.724c1.01.782 3.041.213 10.588-2.385a70.655 70.655 0 0 1 8.91-2.705c.285.834.736 2.455 1.117 3.825 1.566 5.631 2.365 8.118 3.241 8.95 1.7 1.535 4.013-.964 7.52-4.747a28.475 28.475 0 0 1 3.514-3.469l.123-.07.1-.1c1.5-1.385 1.686-3.857 1.838-5.841.038-.5.088-1.132.158-1.508 2.33-.528 11.57-2.2 18.554-3.424 1.49 3.7 6.856 8.529 9.053 10.4-.621.844-1.465 1.676-2.109 1.676-.927 0-2.693-.063-4.562-.13-2.184-.078-4.441-.158-5.849-.158-2.392 0-4.5 2.56-5.288 3.665a6.185 6.185 0 0 0-1.448 3.236m.05.531a.988.988 0 0 1-.045-.481 1.85 1.85 0 0 0 .045.481m-112.442 108.631-1.5.2c-11.367 1.556-111.189 15.255-115.512 17.221-4.271 1.939-5.06 2.332-6.625 3.116-1.593.681-21.662 3.765-25.011 3.389a8.847 8.847 0 0 0-.9-.063c1.33-8.582 2.973-17.562 3.615-18.794.468-.3 2.307-.416 9.271 1.911a1.8 1.8 0 0 0 1.485-.235c2.237-1.473 3.742-9.909 3.905-10.866.478-2.382 1.671-3.4 3.324-4.814a24.222 24.222 0 0 0 3.058-2.981c2.445-2.938 3.525-9.143 3.888-11.833 2.357.271 7.214.591 9.922-.887 2.047-1.117 6.079-1.15 10.345-1.185 1.716-.015 3.492-.03 5.308-.108a17.463 17.463 0 0 0 9.641-3.108 28.812 28.812 0 0 1 3.534-1.914c2.9-1.27 3.659-2.3 4.343-3.529a3.573 3.573 0 0 1 1.343-1.493c1.41-.939 3.194-.488 5.085-.015a20.108 20.108 0 0 0 2.47.508c3.557.393 5.841-4.632 7.354-7.958.486-1.062 1.067-2.68 1.746-4.554 1.385-3.842 3.113-8.622 4.767-10.836 1.365-1.814 3.3-2.307 5.17-2.78a8.271 8.271 0 0 0 3.311-1.343c1.728-1.443 3.091-9.654 3.737-14.26 2.866.5 8.78 1.5 10.145 1.525a15.95 15.95 0 0 1 2.79 2.044 25.624 25.624 0 0 0 5.761 3.938c3.642 1.515 12.89 2.427 15.122 2.107.518-.073 1.27-.13 2.139-.193 2.517-.185 5.654-.421 7.735-1.348 1.555-.689 6.207-.033 9.964.887.776.839 2.888 5.2 4.506 8.99l.007.08.135.235 8.97 15.327.073.125.1.1 8.118 8.644c-2.5 2.4-9.684 9.218-13.156 11.763-2.88 2.114-5.228 6.127-7.109 9.356a26.465 26.465 0 0 1-2.87 4.361c-2.277 2.279-9.454 9.173-9.529 9.24ZM846.406 626.12l-80-.373c.045-.594.083-1.18.128-1.748.987-13.682.924-15.137-.659-15.583a50.543 50.543 0 0 0-6.155-1.335c-1.621-.291-3.339-.6-5.027-.977 2.911-22.328 2.593-34.051 2.332-43.477-.073-2.62-.143-5.092-.143-7.612 0-10.716-4.153-35.732-5.223-41.989l34.219-1.293c27.864-1.1 56.67-2.237 84.715-2.53-.075 1.515-.684 4.822-1.072 6.944-1.057 5.791-1.12 6.613-.548 7.322l.361.448a4.718 4.718 0 0 0 .641.055 115.156 115.156 0 0 0 12.359.07l.669-.018-2.881 8-8.94 22.92c-.025.063-5.4 11.881-10.252 17.113-5.185 5.586-14.666 29.425-15.5 36.1-.641 5.137.484 14.393.972 17.962m-240.781-115.74c-1.272-.536-19.626-2.4-60.237-6.377l-18.949-1.864c.661-3.832 1.307-7.409 1.954-10.956 13.6 1.318 22.321 2.157 22.664 2.187l1.287.125c6.841.639 37.991 3.477 48.437 3.214 11.9-.3 69.134-1.152 80.607-.576 5.989.3 19.49.516 33.786.744 12.169.2 24.718.4 31.99.651.551 6.129 1.222 10.866 1.571 13.105h-.015l.24 1.413c.055.311 5.428 31.156 5.428 42.971 0 2.555.07 5.042.145 7.68.268 9.784.566 20.878-2.277 42.8a26.455 26.455 0 0 1-3.7-1.3c-5.085-2.54-14.866-6.337-19.575-6.337-4.484 0-25.382 6.32-28.911 7.891-1.956.867-16.5-1.971-25.189-3.665-5.506-1.072-10.258-2-12.682-2.272a10.8 10.8 0 0 1-7.5-4.025 7.129 7.129 0 0 0-2.745-2.144c-.143-.045-14.571-4.729-18.3-4.729-1.641 0-6.473-3.066-9.361-4.892a22.147 22.147 0 0 0-4.339-2.465c-1.716-.428-15.382-5.881-17.4-7.507-.123-2.66 1.13-19.716 2.149-33.53 2.187-29.75 2.187-29.75.922-30.144m-400.329-25.329c.163 4.055.438 10.841-.453 16.207a15.48 15.48 0 0 1-3.076 7.437l-.08-.128-103.193-161 25.905-97.542c29.7 9.035 70.465 17.782 70.88 17.875l1.265.268.07-.381 66.81 14.143-25.12 135.264c-1.19 5.473-11.693 53.877-11.693 57.033a4.252 4.252 0 0 1-1.393 3.457 1.528 1.528 0 0 1-1.533.06c-.093-.04-9.406-3.993-12.552-3.993-3.422 0-5.922 5.689-5.922 8.644 0 .616.038 1.513.083 2.655m35.464-67.364c.008-.033 22.867-123.122 25.116-135.238l70.83 14.993c-.456 2.658-1.037 5.781-1.651 9.1-3.993 21.5-3.762 22.441-2.149 22.982l.105.038.113.015c17.92 2.635 35.98 5.1 53.945 7.455l-22.138 135.1c-16.853-3.334-118.849-23.5-130.309-25.763a4846.609 4846.609 0 0 1 6.142-28.678m454.211-215.6a12.546 12.546 0 0 1 4.729 5.243c2.67 5.563 2.848 27.466 2.192 44.532-.243 6.272-1.06 21.795-3.427 30.377a32.923 32.923 0 0 0-1.385 11.645c.045 1.969.1 4.411-.088 7.958-6.395-2.47-17.542-5.824-23.536-6.345a18.743 18.743 0 0 0-8.081 1.075 10.319 10.319 0 0 1-5.4.674c-3.206-.564-5.11-1.809-7.525-3.384-1.049-.689-2.237-1.463-3.652-2.257-3.582-2.017-6-1.824-9.343-1.556-1.375.11-2.933.235-4.867.235-2.76 0-6.222.2-9.884.408-5.175.3-11.044.629-16.1.463l-18.751-.857c-14.225-.686-30.349-1.46-35.091-1.46-6.565 0-33.5-3.412-39.442-4.176l6.46-64.308h.007l.123-1.288 3.311-34.342a1465.833 1465.833 0 0 0 166.714 7.134l-.436 2.57c-.776 4.669 1.29 6.119 3.477 7.657M836.3 294.818l.108.165.155.13c6.413 5.2 17.023 14.243 18.2 16.4 1.781 3.266 2.009 7.557.741 13.9-.849 4.241-5.658 7.577-9.9 10.518a33.966 33.966 0 0 0-6.019 4.817c-3.068 3.539-1.871 5.959-1 7.723a4.955 4.955 0 0 1 .694 2.067c0 2.309-.744 4.529-4.659 9.651-2.547 3.331-3.825 7.783-4.494 12.021-19.934-4.306-34.279-2.46-34.893-2.377.108-.01-65.154 2.783-73.37 3.136a70.458 70.458 0 0 1-1.563-13.749c0-4.148-1.195-6.9-3.367-11.9-.731-1.683-1.563-3.594-2.51-5.924l-2.836-6.951c-2.027-4.952-3.494-8.527-5.541-13.854a32.056 32.056 0 0 0-3.334-6.247c-2.009-3.121-3.6-5.581-3.239-12.036.213-3.825.153-6.408.108-8.479a30.621 30.621 0 0 1 1.292-10.926 61.032 61.032 0 0 0 1.283-6.049L828.4 271.73c-.063.874-.135 1.706-.2 2.447-.078.922-.15 1.788-.2 2.52-.308 4.621 7.414 16.75 8.3 18.12m34.653 161.857c4.183 1.969 11.192 5.265 13.068 8.216 1.032 1.621 1.541 5.876 1.984 9.631a60.65 60.65 0 0 0 1.337 8.254c1.18 4.241 5.589 5.18 8.647 5.08-.959 4.764-1.959 11.026-2.46 14.308-3.544.581-7.6 2.307-8.01 4.361a83.1 83.1 0 0 0-1.731 13.2l-.14 1.774-1.383.038c-3.725.11-7.552.205-11.094-.01.135-1.175.519-3.281.822-4.927 1.185-6.483 1.408-8.371.732-9.311a1.458 1.458 0 0 0-.974-.594l-.093-.013h-.093c-28.4.281-57.569 1.43-85.782 2.545l-34.535 1.308a208.845 208.845 0 0 1-2.312-38.167c.371-8.742.534-16.232.661-22.251.168-7.828.288-13.481.767-16.359.877-5.233 1.565-9.376-2.738-13.018-5.125-4.336-7.945-8.106-7.945-10.613a2.36 2.36 0 0 1 1.14-2.006c1.43-1.25 2.562-2.658.739-6.1-1.4-2.65-5.576-7.8-9.614-12.775-3.569-4.4-7.262-8.957-8.321-10.946a16.2 16.2 0 0 1-1.112-2.843l72.949-3.124c.258-.03 14.749-1.881 34.339 2.375a74.013 74.013 0 0 0-.351 4.409c-.281 5.36 1.09 14.4 4.178 20.583 1.791 3.579 6.24 7.748 10.172 11.422 2.492 2.335 4.844 4.536 5.471 5.684l.373.691c1.631 3.031 3.667 6.806 8.213 8.016 4.767 1.272 6.3 2.665 6.3 5.734a16.726 16.726 0 0 1-1.4 5.721 24.246 24.246 0 0 0-1.784 7.224c-.271 4.9 3.271 9.331 9.975 12.487m-124 38.334c-7.339-.253-19.723-.451-31.739-.644-13.646-.218-27.754-.443-33.7-.742-11.532-.579-68.874.278-80.795.574-10.212.258-41.686-2.605-48.216-3.211l3.141-50.8 3.149-51.2c12.106 1.162 77.2 7.352 86.791 7.352.779 0 76.456-.373 87.124-2.172a78.636 78.636 0 0 1 6.643 9.023c1.047 1.979.716 2.272-.175 3.046a4.807 4.807 0 0 0-1.994 3.893c0 3.349 2.971 7.562 8.83 12.527 3.219 2.72 2.745 5.556 1.889 10.7-.511 3.051-.624 8.486-.8 16.715-.128 6.007-.288 13.479-.659 22.193a190.23 190.23 0 0 0 .513 22.754M558.694 357.429c-16.592-2.57-33.292-4.952-49.97-7.227l6.335-63.05c6.195.8 32.917 4.188 39.692 4.188 4.682 0 21.474.809 34.968 1.458l18.792.857c5.175.17 11.1-.168 16.329-.466 3.625-.208 7.051-.4 9.742-.4 2.031 0 3.645-.13 5.067-.243 3.224-.258 5-.4 7.918 1.242 1.338.749 2.44 1.47 3.507 2.169 2.547 1.663 4.749 3.1 8.459 3.757a12.789 12.789 0 0 0 6.588-.754 16.5 16.5 0 0 1 7.114-.972c6.057.529 17.654 4.091 23.694 6.523.1 5.618 1.844 8.339 3.68 11.189a29.6 29.6 0 0 1 3.1 5.789c2.056 5.353 3.529 8.937 5.563 13.9l2.833 6.943c.957 2.36 1.8 4.283 2.532 5.982 2.1 4.844 3.159 7.277 3.159 10.9 0 4.7 1.065 15.46 3.62 20.257 1.175 2.2 4.777 6.643 8.589 11.344.291.361.584.724.882 1.085-12.026 1.33-69.991 1.926-85.306 1.926-9.371 0-75.036-6.237-86.634-7.347l.128-2.084c1.485-26.772 1.2-26.8-.378-26.973m-52.452-7.565c-23.2-3.146-46.343-6.079-69.039-8.947-15.753-1.991-31.762-4.018-47.848-6.122a1.128 1.128 0 0 0-1.36-.178c-17.885-2.345-35.86-4.792-53.7-7.412-.023-2.768 1.9-13.153 3.216-20.214a825.446 825.446 0 0 0 1.643-9.033h.025c0 .01.185-1.217.2-1.288v-.01l5.846-38.44c3.617-24.245 8.068-54.1 9.551-59.042 38.024 4.444 76.812 9.488 114.34 14.373l50.173 6.48Zm-116.7-12.517c15.918 2.079 31.754 4.085 47.345 6.054 39.517 4.995 80.366 10.162 120.624 16.379.368 5.919-2.147 45.3-4.376 80.246L550 490.751c-2.928-.281-10.683-1.025-21.547-2.079a1.237 1.237 0 0 0-.792-.506 1.218 1.218 0 0 0-1.062.328c-41.814-4.048-125.319-12.189-159.22-15.891ZM882.469 532.9c.013-.028 3.517-9.754 3.517-9.754l.624-1.728s-.193 0-.443.01l.12-1.508a81.376 81.376 0 0 1 1.678-12.848c.543-1.009 5.583-3.006 8.722-2.563 3.687.411 24.525-2.678 26.417-3.622 1.568-.781 2.34-1.17 6.573-3.094 3.246-1.4 70.442-10.944 114.813-17.016l48.189-6.6c-.987 2.986-2.846 8.544-3.657 10.36a4.374 4.374 0 0 1-4.143 2.748c-1.373-.228-3.82 1.1-8.684 3.988a44.71 44.71 0 0 1-4.4 2.435c-3.344 1.257-5.849 5.456-7.044 7.845-1.237 2.475-6.525 4.9-9.686 6.355-.739.341-1.382.634-1.9.894a142.86 142.86 0 0 0-18.438 11.417c-1.375 1.075-1.7 4.336-2.117 9.571-.1 1.242-.193 2.435-.308 3.489l-36 4.694a1.232 1.232 0 0 0-.922-.125 1.192 1.192 0 0 0-.531.316l-120.558 15.722 8.178-20.988m160.785-221.636c3.337 1 16.417-.889 20.588-2.971 3.9-1.954 12.241-7.625 13.619-11.069.316-.789 2.154-3.587 12.389-12.542a42.874 42.874 0 0 1 3.737-2.585l4.038 16.963c-.015-.07 4.862 27.834 5.175 29.625.1 3.359-.005 9.133-.739 10.6-1.207 2.417-.03 7.141.406 8.687-1.453 6.082-4.228 16.079-5.759 17.99-.929 1.165-3.76 2.918-6.5 4.611-4.461 2.76-7.231 4.564-8.108 6.312a61.139 61.139 0 0 0-2.758 7.873c-.6 1.961-1.165 3.81-1.623 4.95a6.338 6.338 0 0 1-2.38 2.347c-1.59 1.127-3.569 2.537-3.78 5.255-.255 3.344-7.266 14.07-8.89 15.693a5.734 5.734 0 0 0-1.01 1.4c-3.008-6.555-3.965-6.808-4.459-6.933-2.62-.649-9.012-2.036-11.806-.794-1.688.749-4.7.974-6.906 1.137-.917.065-1.706.128-2.309.21-1.7.248-10.443-.539-13.8-1.936a23.83 23.83 0 0 1-5.13-3.559c-2.086-1.718-3.226-2.613-4.318-2.613-.887 0-6.22-.874-10.007-1.53l.268-13.682.005-.213-.068-.208a94.692 94.692 0 0 0-3.827-9.709c-1.087-2.172-.709-6.285-.406-9.591.125-1.385.248-2.7.248-3.732 0-3.745-2.7-16.725-3.8-20.858a87.734 87.734 0 0 1-1.981-15.876c0-2.462.917-9.589 1.285-12.329 4.962.043 24.768-.128 33.49-5.122 2.322.634 12.585 3.442 15.117 4.2m-98.384.4c.684-1.345 1.273-2.5 1.743-3.244 2.257-3.542 5.967-30.086 5.686-33.46-.386-4.637-7.915-16.915-7.99-17.041a35.838 35.838 0 0 1-5.027-14.508c-.3-3.033.644-7.179 1.643-11.568a93.213 93.213 0 0 0 2.119-11.618c.593-6.142 4.023-10.46 10.195-12.835a15.071 15.071 0 0 1 3.061-.766c1.828-.316 4.108-.709 3.81-3.985a25.8 25.8 0 0 0-.634-3.687 15.3 15.3 0 0 1-.518-3.72c0-1.626 2.873-4.4 4.586-6.064.731-.706 1.365-1.318 1.776-1.811 1.044-1.25 1.24-3.276 1.508-6.082a50.214 50.214 0 0 1 1.062-7.156c.286-1.195.811-1.453.984-1.538 1.413-.694 4.306.609 6.422 1.558a13.1 13.1 0 0 0 3.387 1.222c2.437.273 9.9 3.352 11.978 5.426 1.643 1.643 5.17 2.019 8.907 2.415 2.247.243 4.564.486 5.594 1 1.648.824 1.719 3.033 1.646 6.312-.013.5-.025 1.027-.025 1.535 0 2.77 1.9 4.847 3.727 6.853a26.733 26.733 0 0 1 2.558 3.1c1.3 1.954.654 4.015-.516 7.222-.386 1.065-.792 2.167-1.1 3.331-1.287 4.839-5.22 17.494-7.284 20.077a3.845 3.845 0 0 0-.832 2.973c.386 2.818 3.607 5.213 3.97 5.478l.188.135.226.06c1.808.476 7.111-3.8 7.915-4.727.326-.323.982-1.165 1.886-2.327 1.969-2.535 5.26-6.761 7.349-8.113 1.979.406 6.415 11.708 6.8 14.421.221 1.551 2.605 5.368 6.921 11.868a153.53 153.53 0 0 1 1.646 2.5c1.13 1.808.411 8.156-1.686 11.034-2.315 3.184-6.119 11.53-8.85 19.42-2.3 6.648-2.83 16.79-2.936 19.6-9.253 5.19-32.942 4.712-33.182 4.7l-1.12-.023-.015.115c-3.93.336-18.173 1.643-25.515 3.417-6.435 1.553-18.21.446-22.8-.08.251-.483.494-.962.731-1.43m-16.281 9.948a12.978 12.978 0 0 0 7.314.984c2.713-.388 5.012-3.6 6.971-7.116 3.757.466 17.214 1.936 24.653.138 6.776-1.633 20.067-2.906 24.583-3.3-.4 3.043-1.247 9.7-1.247 12.211a90.089 90.089 0 0 0 2.066 16.52c1.16 4.356 3.717 16.973 3.717 20.214 0 .924-.117 2.177-.235 3.5-.333 3.622-.749 8.131.656 10.939a89.324 89.324 0 0 1 3.622 9.183l-.281 14.466c-.781 5.947-2.159 12.913-3.041 13.889a6.994 6.994 0 0 1-2.309.832c-1.964.5-4.659 1.185-6.555 3.712-1.884 2.51-3.677 7.487-5.12 11.485-.659 1.821-1.225 3.394-1.668 4.366-.987 2.174-3.046 6.7-4.8 6.5a16.944 16.944 0 0 1-2.137-.446c-2.117-.531-4.752-1.2-7.084.358a6.039 6.039 0 0 0-2.137 2.355c-.431.764-.8 1.428-3.166 2.46a31.152 31.152 0 0 0-3.832 2.069 14.966 14.966 0 0 1-8.447 2.745c-1.773.078-3.527.093-5.223.105-4.789.04-8.922.073-11.52 1.49-1.921 1.05-6.019.864-8.424.6.526-4.121 1.773-12.194 3.184-14.814 2.119-3.938 5.065-15.335 5.065-17.95a13.8 13.8 0 0 0-1.516-5.1 47.575 47.575 0 0 1-2-5.378c-1.112-3.785.473-13.158 1.18-16.449l.037-.19-.017-.2-2.891-29.217c-.794-11.139-2.247-33.1-2.024-36.228a7.244 7.244 0 0 1 2.625-4.742M918.23 303.28c2.876 3.838 7.562 12.6 7.562 14.583a3.514 3.514 0 0 0 .774 2.174 9.479 9.479 0 0 0-3.106 6.114c-.293 4.088 1.929 35.3 2.026 36.624 0 .033 2.64 26.664 2.873 29.057-.331 1.608-2.527 12.6-1.092 17.487a49.369 49.369 0 0 0 2.107 5.648 12.728 12.728 0 0 1 1.312 4.121c0 2.011-2.813 13.133-4.764 16.763-2.117 3.928-3.554 16.412-3.617 16.94v.03l-.088.759c-.351 2.833-1.418 8.624-3.389 10.986a21.751 21.751 0 0 1-2.76 2.683c-1.8 1.543-3.5 3-4.158 6.26-.709 4.138-1.931 7.958-2.653 9.02-6.255-2.072-10.225-2.863-11.618-.794a14.83 14.83 0 0 0-1.107 3.564c-1.478.135-5.824.225-6.776-3.2a59.129 59.129 0 0 1-1.265-7.878c-.523-4.411-1.019-8.579-2.355-10.681-2.1-3.289-8.121-6.317-14.122-9.14-3.309-1.558-8.82-4.937-8.537-10.077a21.9 21.9 0 0 1 1.633-6.5 18.9 18.9 0 0 0 1.55-6.585c0-5.513-4.213-7.1-8.158-8.151-3.507-.934-5.1-3.91-6.653-6.786l-.381-.7c-.822-1.5-3.089-3.622-5.959-6.312-3.587-3.357-8.053-7.537-9.641-10.716-2.9-5.8-4.183-14.29-3.918-19.328.16-3.036.646-12.279 4.661-17.529 3.865-5.062 5.175-7.883 5.175-11.174a7.087 7.087 0 0 0-.952-3.174c-.8-1.623-1.333-2.693.646-4.972a32.338 32.338 0 0 1 5.553-4.4c4.629-3.211 9.879-6.848 10.924-12.081 1.4-6.969 1.087-11.778-.994-15.6-.621-1.135-2.83-3.349-5.541-5.824 12.259-.584 54.055-2.74 64.062-5.408a25.081 25.081 0 0 0 2.743 4.2m-68.9-148.04c1.673-2.009 3.85-2.152 6.367-2.32a22.08 22.08 0 0 0 3.655-.446 12.773 12.773 0 0 0 8.554-5.706c.994-1.423 4.754-4.9 8.073-7.965 3.271-3.023 6.357-5.879 7.77-7.572 2.465-2.958 8.213-3.264 10.844-2.77-.03 1.192-2.71 5.155-5.613 7.332-4.1 3.076-3.4 6.61-2.5 11.084a3.726 3.726 0 0 0 1.7 2.608c1.889 1.132 4.571.323 6.936-.388a16.027 16.027 0 0 1 2.55-.641c1.095-.11 3.224 3.314 4.246 4.96 1.137 1.836 1.768 2.815 2.5 3.254.942.569 2.768.478 7.75.08 3.574-.283 8.028-.636 10.307-.213 4.789.9 8.131-.12 11.53-3.524 2.705-2.7 5.731-4.093 12.925-7.262 5.5-2.417 7.843-1.065 10.561.5.538.311 1.095.631 1.681.922 3.194 1.6 6.866 2.74 12.083.3 3.745-1.746 7.44 2.768 8.857 4.792l.411.589a17.47 17.47 0 0 1 3.715 9.013c.158.987-.133 1.29-.225 1.39-.962 1.014-4.454.654-7.259.363-1.463-.153-2.981-.308-4.293-.308l-3.219-.02c-4.957-.053-10.573-.105-13.311.644-1.849.5-2.9 2.036-3.822 3.389-1.032 1.508-1.923 2.81-3.74 2.931-4.2.278-6.9 1.1-9.323 2.836l-.4.288c-2.162 1.55-7.227 5.185-11.124 6.485-4.411 1.468-6.638 5.29-9.21 9.716l-.729 1.25c-.664 1.122-1.325 2.317-2.029 3.579a76.734 76.734 0 0 1-5.994 9.6 60.643 60.643 0 0 1-3.883-10.262c-1.523-6.092-6.811-10.846-7.036-11.044l-.253-.225-.336-.068c-.363-.073-36.436-7.232-39.539-8.081-2.858-.779-7.106-4.318-8.1-7.547a102.876 102.876 0 0 1-2.212-10.187c.388-.458.769-.912 1.137-1.355m-31.486-.063a27.674 27.674 0 0 1 6.287-2.675 37.062 37.062 0 0 0 5.458-2.169c.554-.3.751-.123.894.01.962.864 1.4 3.827.531 5.929a3.626 3.626 0 0 0-.12 3.078c.706 1.262 2.249 1.5 4.038 1.773a23.9 23.9 0 0 1 2.968.594c3.2.917 5.869-.664 8.153-2.846.441 2.385 1.192 6.154 1.959 8.647 1.295 4.213 6.222 8.244 9.834 9.23 3.061.832 35.466 7.274 39.361 8.048 1 .959 4.87 4.907 6.032 9.556a65.76 65.76 0 0 0 4.521 11.718c-.04.04-.075.085-.115.128-8.614 8.722-8.156 11.708-7.066 13.193a2.83 2.83 0 0 0 2.615.967c3.627-.328 10.007-5.328 12.722-9.944.894-1.22 1.588-1.488 1.816-1.373.491.253 1.029 1.856.31 4.005l-.974 3.021a81.321 81.321 0 0 1-3.885 10.438c-1.989 4.226-1.791 12.577-1.633 19.287.033 1.505.068 2.926.068 4.1 0 6.142 0 10.581-1.132 16.242-1.047 5.228.549 7.414 2.237 9.731.368.506.751 1.027 1.115 1.6 1.751 2.75 2.139 8.066.989 13.531a13.53 13.53 0 0 0-.15 5.709c-10.548 2.77-59.213 5.092-65.918 5.4-4.431-3.9-9.213-7.8-10.463-8.817-3.156-4.927-7.983-13.6-7.8-16.427.05-.709.12-1.568.2-2.477.544-6.392.869-11.9-.661-14.446-.791-1.32-3.043-3.076-6.655-5.834-3.514-2.683-8.825-6.738-9.09-8.467-.709-4.6-3.021-7.319-7.495-8.807a24.841 24.841 0 0 0-4.233-.849c-3.93-.561-7.993-1.147-9.443-5.318-2.242-6.453-2.242-12.269-2.242-16.94a24.371 24.371 0 0 0-1.7-7.387c-.944-2.818-1.926-5.729-1.781-8.459.21-3.96 1-5.012 2.888-7.55.529-.711 1.13-1.515 1.811-2.507a74.815 74.815 0 0 1 2.259-3.061c2.254-2.936 4.038-5.253 4.038-8.927 0-.749-.018-1.5-.033-2.217-.075-3.264-.145-6.347 1.4-7.893 1.7-1.706 6.119-5.117 8.111-6.635 2.462.794 6.741-1.653 9.964-3.908M690.726 88.591c.766 0 2.392.11 4.456.253 5.546.378 13.927.957 18.847.316 5.15-.671 13.241 2.557 21.81 5.977l5.924 2.335a38.307 38.307 0 0 0 20.224 2.417c1.195-.128 2.32-.25 3.429-.308 5.856-.291 18.837 1.508 30.594 7.67 12.249 6.415 27.772 6.653 31.8 4.637 3.041-1.518 14.077.155 15.287.827 1.568.934 3.1 3.073 4.093 5.726.015.04.018.05-.008.108-.511 1.112-4.486 2.58-7.116 3.549l-1.4.516a38.221 38.221 0 0 0-6.347 3.4 51.858 51.858 0 0 1-10.4 5.268c-5.834 2.016-7.607 7.086-8.782 10.44a10.739 10.739 0 0 1-1.292 2.928c-2.307 2.635-6.124 7.69-5.8 11.916a3.551 3.551 0 0 0 .12.679c-2.114 1.613-6.4 4.94-8.171 6.713-2.3 2.3-2.222 5.9-2.137 9.714.017.714.035 1.443.035 2.164 0 2.826-1.4 4.647-3.519 7.4-.711.929-1.521 1.979-2.335 3.166-.656.954-1.24 1.738-1.753 2.427-2.021 2.71-3.134 4.2-3.384 8.92-.168 3.2.887 6.347 1.906 9.388a22.691 22.691 0 0 1 1.565 6.588c0 4.6 0 10.911 2.382 17.765 1.949 5.611 7.219 6.365 11.45 6.976a23.777 23.777 0 0 1 3.8.741c3.564 1.19 5.25 3.161 5.811 6.813.388 2.54 4.231 5.638 10.045 10.077 2.55 1.949 5.446 4.158 6.029 5.13.8 1.345.839 4.689.674 7.985l-126.023 5.11c1.177-8.256 1.666-17.767 1.846-22.371.24-6.282 1.262-38.006-2.437-45.711a14.84 14.84 0 0 0-5.546-6.2c-2.037-1.435-2.966-2.087-2.447-5.2l.639-3.77c1.017-5.994 1.984-11.653 1.984-14.37a47 47 0 0 0-1.037-7.174 47.126 47.126 0 0 1-.987-6.711 67.43 67.43 0 0 1 .7-7.129c.3-2.3.606-4.684.739-6.673.316-4.764-2.134-16.507-5.335-22.917a32.579 32.579 0 0 1-3.059-18.115c.481-4.809.882-13.226-1.2-19.453Zm-155.64-6.27c11.705.879 90.158 5.944 96.453 5.4a99.281 99.281 0 0 1 13.456.446 85.437 85.437 0 0 0 11.4.411c4.484-.411 18.659-.223 27.343-.085 2.365 6.034 1.771 15.345 1.38 19.247a35.1 35.1 0 0 0 3.307 19.485c3.179 6.347 5.345 17.632 5.08 21.627-.128 1.909-.431 4.251-.724 6.52a68.469 68.469 0 0 0-.724 7.449 46.858 46.858 0 0 0 1.032 7.176 47.065 47.065 0 0 1 .989 6.708 108.468 108.468 0 0 1-1.726 12.645 1463.286 1463.286 0 0 1-166.9-7.119Zm-264.4-40.348c.664.17 63.2 16.029 73.516 18.524 8.073 1.951 27.153 4.767 45.609 7.487 14.345 2.117 27.894 4.116 35.143 5.543 12.672 2.495 71.81 6.29 97.064 7.908 4.827.311 8.627.556 10.57.691l-13.06 135.411-50.095-6.47c-37.818-4.922-76.925-10.007-115.244-14.481-1.055-.123-1.631-.18-3.346 9.23-4.346-.709-14.583-2.35-17.825-2.583-2.036-.143-5.556.724-9.631 1.736-4.4 1.087-9.393 2.32-12.013 2.029-2.74-.3-5.972-11.725-7.707-17.865a70.8 70.8 0 0 0-2.868-8.9c-1.648-3.482-1.125-5.841-.519-8.572a24.809 24.809 0 0 0 .636-3.825c.363-5.436-2.034-6.8-6.58-7.4a10.037 10.037 0 0 0-4.421.24 8.271 8.271 0 0 1-4.2.058c-.929-.163-1.142-.508-1.212-.624-.614-.984.15-3.547.889-6.027a49.227 49.227 0 0 0 1.335-5.2c.9-4.957 2.78-15.272 4.536-19.077 1.566-3.394-1.022-7.349-2.911-10.235a21.767 21.767 0 0 1-1.425-2.37c-1.007-2.267-6.327-6.728-12.161-11.487l-2.062-1.691c-2.808-2.34-6.878-21.883-7.66-28.12-.433-3.469 3.63-24.643 5.523-33.964.073.023.123.035.123.035m-2.54-.721c-1.215 5.974-6.134 30.592-5.591 34.96.323 2.575 4.328 26.224 8.542 29.73l2.079 1.708c3.444 2.81 10.611 8.657 11.462 10.568a21.186 21.186 0 0 0 1.613 2.718c1.568 2.4 3.715 5.684 2.733 7.818-1.663 3.6-3.251 11.585-4.724 19.681a46.613 46.613 0 0 1-1.275 4.93c-.977 3.281-1.821 6.114-.616 8.061a4.029 4.029 0 0 0 2.906 1.773 10.726 10.726 0 0 0 5.255-.1 7.735 7.735 0 0 1 3.472-.185c3.945.529 4.644 1.282 4.414 4.754a22.457 22.457 0 0 1-.581 3.447c-.649 2.913-1.318 5.929.7 10.187a71.441 71.441 0 0 1 2.72 8.519c3.181 11.229 5.746 19.215 9.844 19.668 3.063.341 8.058-.894 12.89-2.092 3.544-.874 7.212-1.781 8.85-1.663 3.094.22 13.236 1.841 17.564 2.553-1.5 8.654-3.8 23.646-7.662 49.564l-5.645 37.111-140.046-29.648c1.51-8.346 8.674-47.708 10.969-55.866.867-3.078 1.558-5.09 2.114-6.7a18.491 18.491 0 0 0 1.405-8.737c-.281-5.561-.328-6.568 1.691-14.077 1.029-3.82 2.683-4.569 4.772-5.516a11.215 11.215 0 0 0 5.165-3.92c2.016-2.853 5.446-4.494 8.469-5.942a24.921 24.921 0 0 0 4.9-2.778c2.868-2.347 2.79-5.032 2.735-7a10.985 10.985 0 0 1 .03-1.621c.286-2.3-4.108-7-7.4-10.17a3.575 3.575 0 0 0 .468-1.846c0-1.576.073-4.509.148-7.347s.143-5.8.143-7.409c0-2.841 1.54-9.832 4.581-20.778 2.868-10.325 7.492-31.09 7.535-31.3 0-.01 6.605-31.356 7.888-37.455 6.585 1.874 12.342 3.509 15.488 4.4M74.615 92.524a34.084 34.084 0 0 0 1.666-3.336c.468-1.408 2.144-9.348 2.335-10.25l.07-.331-.108-.323c-.569-1.713-1.561-6.645.616-8.822 3.467-3.469 4.449-9.626 4.489-9.887l.1-.664-.5-.453c-.043-.038-4.288-3.983-2.5-7.194 2.485-4.471 2.462-20.495.574-27.584a15.208 15.208 0 0 1 1.51-11.127c1.826-.8 7.044 2.608 10.894 5.13 4.118 2.7 8.006 5.248 10.663 5.248 3.572 0 6.448 1.335 9.228 2.628 1.042.488 2.029.942 3.051 1.338 2.242.862 2.092 2.861 1.175 7.565l-.22 1.16c-.591 3.154-3.384 4.411-6.618 5.866-.741.336-1.508.679-2.257 1.052a3.5 3.5 0 0 0-2.092 2.427c-.381 1.974 1.282 3.85 3.043 5.836a22.015 22.015 0 0 1 2.024 2.5c2.818 4.424 6.21 2.445 9.205.7 3.259-1.9 4.213-7.455 5.137-12.825.22-1.29.431-2.507.666-3.62.679-3.234 1.282-3.963 2.279-5.173a19.939 19.939 0 0 0 2.209-3.141c1.914-3.352 1.077-7.73.4-11.249a32.815 32.815 0 0 1-.534-3.354 80.485 80.485 0 0 1 .148-8.795c.065-1.305.12-2.447.14-3.331a27.046 27.046 0 0 1 4.814 1.713 13.466 13.466 0 0 0 4.063 1.35c1.613.135 22.481 5.927 36.1 9.787l39.344 11c-.005 0 18.879 5.365 34.507 9.8l-7.915 37.613c-.045.193-4.654 20.9-7.5 31.161-3.141 11.317-4.672 18.333-4.672 21.447 0 1.576-.073 4.509-.143 7.347-.073 2.856-.148 5.8-.148 7.409 0 .534-.16.666-.225.714-.879.7-4.116-.043-6.049-.491-.869-.2-1.876-.381-2.943-.576-3.594-.656-8.066-1.47-10.748-3.534-3.579-2.753-9.431-2.668-14.6-2.6l-2.362.023c-4.917 0-9.656-.664-18.053-3.96-7.382-2.9-9.907-1.438-12.579.11-.461.266-.944.546-1.458.8-2.282 1.142-5.563 1.17-10.107 1.21a181.03 181.03 0 0 0-5.576.105c-6.856.266-9.7-1.884-13.566-5.453-3.309-3.051-7.91-2.76-11.973-2.5-1.167.075-2.272.143-3.337.143-4.611 0-6.678-.446-12.414-3.6-3.522-1.936-3.479-2.951-3.352-5.949a29.75 29.75 0 0 0-.055-4.353c-.461-4.837-2-6.42-3.787-8.254a21.617 21.617 0 0 1-1.951-2.214c-2.983-3.97-7.522-3.97-10.836-3.97-2.057 0-7.217-1.435-10.27-2.365.353-.679.694-1.325.994-1.9M26.807 208.139c.2-3.985.408-8.1.827-12.164 1.227-11.843 2.73-12.983 6.017-15.485l.859-.656c2.951-2.3 7.94-13.323 14.15-27.493 1.894-4.321 3.529-8.051 4.579-10.155 3.494-6.984 13.794-30.239 15.26-36.093a53.2 53.2 0 0 1 3.96-9.408c2.537.782 8.745 2.608 11.432 2.608 3.094 0 6.6 0 8.83 2.971a25.7 25.7 0 0 0 2.162 2.457c1.636 1.676 2.71 2.783 3.091 6.743a27.567 27.567 0 0 1 .045 4.005c-.15 3.554-.01 5.691 4.647 8.254 5.786 3.184 8.334 3.913 13.621 3.913 1.145 0 2.34-.073 3.5-.148 3.9-.248 7.592-.481 10.112 1.841 4.085 3.77 7.577 6.417 15.362 6.119 1.986-.078 3.855-.093 5.5-.105 4.694-.043 8.4-.073 11.207-1.473.581-.291 1.095-.591 1.593-.877 2.407-1.4 4.151-2.407 10.408.055 7.67 3.013 12.812 4.133 18.967 4.133l2.4-.023c4.754-.065 10.147-.143 13.035 2.079 3.161 2.43 7.965 3.309 11.826 4.01 1.037.19 2.016.368 2.828.559 2.332.534 4.9 1.115 6.781.644 3.812 3.645 6.956 7.4 7 8.431v-.038a13.125 13.125 0 0 0-.045 2.006c.05 1.834.1 3.422-1.819 4.99a23.465 23.465 0 0 1-4.394 2.452c-3.3 1.581-7.041 3.372-9.431 6.761a8.866 8.866 0 0 1-4.153 3.081c-2.262 1.024-4.819 2.182-6.157 7.149-2.062 7.647-2.072 8.995-1.776 14.849a16.193 16.193 0 0 1-1.27 7.8c-.536 1.558-1.272 3.692-2.159 6.843-2.385 8.484-9.669 48.6-11.074 56.4-7.206-1.571-43.865-9.679-70.655-17.92-29.928-9.208-67.116-20.83-74.32-23.137-6.272-2.006-19.6-5.03-23.4-5.879.3-3.281.466-6.653.641-10.1m161.199 380.689c-2.625-2.67-4.015-4-5.138-4.318-19.8-4.654-59.3-10.207-63.809-10.711-.731-1.072-1.806-6.455-1.806-11.515 0-3.442-3.169-10.786-5.714-16.68a71.913 71.913 0 0 1-2.715-6.768c-.979-3.923-5.578-7.307-9.261-9.456-.591-.343-1.112-.626-1.568-.877-2.207-1.21-2.44-1.335-2.44-3.246 0-3.767-2.129-5.543-5.656-8.484a34.234 34.234 0 0 0-5.3-3.374c-2.3-1.273-4.471-2.477-5.471-3.9-2.137-3.053-8.1-8.982-12.637-12.95a18.889 18.889 0 0 0-7.728-3.878 11.612 11.612 0 0 1-4.694-2.179c-1.951-1.776-3.827-6.653-5.2-10.215a39.421 39.421 0 0 0-1.778-4.223c-1.448-2.61-5.914-13.394-5.914-16.745 0-2.9-2.527-6.921-5.2-11.182-1.187-1.891-2.412-3.848-3.336-5.6-2.658-5.047-6.575-14.856-9.438-22.02l-.631-1.576c-1.661-4.318 1.508-9.351 3.6-12.677 1.12-1.779 1.874-2.986 1.966-4.013.3-1.783-1.571-4.852-5.6-10.936-.987-1.483-1.916-2.881-2.665-4.1-3.181-6.46-2.562-8.907-1.906-9.781 1.373-1.819 5.711-1.037 8.041-.616 1.971.358 2.961.536 3.532-.423a1.461 1.461 0 0 0-.208-1.741l-.04-.055-.05-.045c-3.031-3.056-2.4-5.879-1.791-8.607.418-1.856.809-3.607 0-5.243l-.038-.075-.05-.075c-.869-1.27-2.4-.664-3.75-.128-2.8 1.115-6.638 2.638-10.413-3.071-2.76-4.048-2.615-7.041-2.475-9.942a13.445 13.445 0 0 0-.624-5.914l-1.04-2.545A123.034 123.034 0 0 1 2.8 320.988c-1.055-4.481.872-13.414 2.422-20.588 1.085-5.007 1.939-8.957 1.738-10.951l-.306-2.788a22.535 22.535 0 0 1-.16-6.558 30.042 30.042 0 0 0-.441-7.479 38.911 38.911 0 0 1-.463-4.647c0-1.954 3.058-5.889 5.082-8.494.834-1.077 1.556-2.006 2.057-2.755 1.881-2.823 9.884-21.913 10.225-22.724a55.937 55.937 0 0 0 2.946-13.261c4.1.922 16.948 3.852 22.9 5.759 7.116 2.274 43.462 13.637 73.2 22.792l-26.076 98.161-.14.534.3.466 103.389 161.308c.481 1.676 3.144 10.931 3.925 12.487a77.8 77.8 0 0 1 3.78 9.8c.035.165.073.336.11.521.421 1.916 1.052 4.819-1.856 9.023l-1.929 2.78c-3.885 5.583-9.2 13.226-10.22 15.27-.774 1.54-1.047 5.177-1.41 10.976-.175 2.881-.363 5.864-.661 8.091a38.978 38.978 0 0 1-3.219 10.112m113.561 64.5-20.375-2.886c-3.412-1.555-71-43.965-79.437-49.849-4.386-2.5-8.567-6.52-11.871-9.857a42.945 42.945 0 0 0 3.827-11.69c.308-2.315.493-5.341.674-8.266.245-3.928.549-8.815 1.15-10.012.939-1.881 6.415-9.754 10.035-14.959l1.934-2.785c3.532-5.1 2.7-8.927 2.247-10.981a14.14 14.14 0 0 1-.1-.481 79.755 79.755 0 0 0-4-10.43c-.433-.862-1.9-5.664-3.063-9.669 1.085-.949 3.737-3.81 4.734-9.8.934-5.616.654-12.567.483-16.72-.043-1.11-.078-1.989-.078-2.552 0-2.527 2.207-6.139 3.417-6.139 1.859 0 8 2.264 11.567 3.792a4.018 4.018 0 0 0 3.9-.275 6.585 6.585 0 0 0 2.52-5.546c0-1.235 2.214-12.211 4.985-25.409l130.421 25.78-30.053 183.375c-10.318-1.428-22.5-3.159-32.916-4.637m106.081.634c-7.279-1.981-44.639-7.655-46.523-6.941l-.063.023-.058.035c-.829.416-1.014 1.27-1.748 5.228-.421 2.27-1.373 7.419-2.244 8.549-1.658-.065-9.684-1.117-20.044-2.542l30.021-183.237c33.846 3.7 116.915 11.8 158.909 15.863-3.364 18.516-6.848 37.871-11.142 91.563-.959 13.649-1.548 27.9-2.071 40.469-.649 15.658-1.32 31.812-2.457 34.768-17.845-1.2-34.918-3.141-52.976-5.19-14.022-1.6-28.523-3.244-43.3-4.494-2.3-.348-3.945 2.247-5.4 4.536-.311.491-.609.944-.9 1.37m362.16 63.05a22.176 22.176 0 0 1 .351 9.837c-.661 2.991.4 9.842.919 12.8a18.063 18.063 0 0 1-8.587-2.016 59.03 59.03 0 0 0-4.479-2.254c-1.656-.761-2.212-1.017-2.921-2.009a20.436 20.436 0 0 0-3.394-3.354 36.767 36.767 0 0 1-3.64-3.409c-2.452-2.725-4.834-.739-6.57.716a11.953 11.953 0 0 1-3.194 2.134c-1.573.6-3.071 1.114-4.163 1.49-2.329.794-3.028 1.035-2.843 2.169a1.305 1.305 0 0 0 1.383 1.079.388.388 0 0 1-.113-.01 44.077 44.077 0 0 1 8.885 4.947c2.76 2.149 5.345 4.712 5.6 8.922.223 3.825-1.964 5.508-8.231 8.329-5.027 2.262-8 5.987-10.626 9.268-.576.719-1.12 1.4-1.676 2.057-3.126 3.692-15.45 10.791-18.321 10.555-3.584-.3-7.562.523-11.665 1.47-3.72.862-3.254 4.126-2.918 6.51a14.241 14.241 0 0 1 .216 3c-.153 1.834-.907 2.254-2.913 3.374a33.552 33.552 0 0 0-2.916 1.773c-2.187 1.515-3.344 1.443-5.646 1.3a34.765 34.765 0 0 0-4.409-.07c-1.889.1-3.169.358-3.717 1.338a2.44 2.44 0 0 0 .3 2.43c.378.7.478.979.333 1.26a16.011 16.011 0 0 1-2.147 3.164c-.594.739-1.272 1.58-2.094 2.753-1.616 2.31-1.059 3.574-.09 5.11a10.181 10.181 0 0 1 1.358 2.9c.639 2.237.5 2.324-1.849 3.827-.709.456-1.593 1.019-2.6 1.759a43.67 43.67 0 0 1-3.913 2.53c-1.981 1.172-3.547 2.094-4.812 4.2-1.606 2.683.711 4.684 2.1 5.879a6.347 6.347 0 0 1 1.2 1.2 45.326 45.326 0 0 0 1.8 13.919 62.305 62.305 0 0 1 1.683 6.981c.817 3.993 1.661 8.126 3.3 11.407.744 1.483.9 2.638.466 3.424-.7 1.27-2.9 1.621-3.8 1.711-2.553.255-12.9-2.763-20.5-5.984-6.821-2.881-15.3-6.473-23.248-11.475-7.349-4.626-9.313-8.922-10.718-16.239a123.8 123.8 0 0 1-2.292-19.145c0-4.419-3.344-6.2-7.58-8.459l-.316-.168c-3.151-1.681-6.751-9.854-8.482-13.782-.461-1.054-.831-1.886-1.112-2.447-.719-1.44-2.908-5.165-5.446-9.476-2.527-4.291-5.385-9.155-6.713-11.668l-1.869-3.477c-2.274-4.216-4.852-8.993-6.174-12.312-1.14-2.845-3.649-5.456-5.866-7.758a26.2 26.2 0 0 1-3.194-3.707c-2.209-3.69-14.548-8.048-22.191-9.832-8.947-2.087-17.128-.949-22.451 3.121-2.49 1.9-4.381 4.709-6.38 7.68-2.2 3.264-4.466 6.635-7.83 9.411-5.451 4.506-8.121 2.645-12.968-.721l-1.145-.792a50.881 50.881 0 0 1-5.423-4.191 20.71 20.71 0 0 0-3.319-2.5l-1.057-.619c-3.379-1.966-9.676-5.621-12.361-10.748a161.186 161.186 0 0 1-9.732-25.477c-1.145-4.384-6.53-12.006-11.738-19.375-2.931-4.146-5.7-8.066-7.184-10.711-3.935-7.034-22.917-21.722-28.247-25.452.258-.383.506-.779.754-1.167.834-1.315 2.227-3.512 2.993-3.4 14.821 1.258 29.307 2.9 43.312 4.5 17.484 1.984 35.559 4.04 53.669 5.243a1.59 1.59 0 0 0 1.167-.413c1.771-1.581 2.3-10.811 3.382-36.789.521-12.554 1.112-26.785 2.069-40.386 3.3-41.283 6.119-62.2 8.772-78.074l19.122 1.879c22.772 2.227 53.426 5.225 58.917 6.107-.065 3.379-1.012 16.247-1.854 27.739-2.172 29.482-2.372 33.908-1.986 34.778 1.217 2.435 18.959 8.83 19.127 8.875a37.641 37.641 0 0 1 3.6 2.144c4.722 2.993 8.5 5.285 10.7 5.285 2.768 0 14.581 3.627 17.507 4.6a5.639 5.639 0 0 1 1.7 1.473 13.29 13.29 0 0 0 9.055 4.807c2.32.258 7.031 1.175 12.479 2.239 14.5 2.831 24.195 4.6 26.684 3.5 3.68-1.633 23.919-7.675 27.9-7.675 3.775 0 12.615 3.154 18.5 6.094a30.331 30.331 0 0 0 5.14 1.718 1.211 1.211 0 0 0 .519.208 1.49 1.49 0 0 0 .238-.015c1.986.471 4.013.834 5.909 1.175 2.029.366 3.928.711 5.35 1.117.228 1.756-.205 7.778-.591 13.153-.882 12.206-1.445 21.845-.13 25.332.17 6.134 7.209 26.707 13.887 38.8-3.4 10.092-8.775 26.73-7.993 29.067m125.321-3.226a5.244 5.244 0 0 1-3.309 2.886c-1.61.291-2.8.706-3.384 1.776-.687 1.262-.135 2.808.716 4.854 1.092 2.62 2.658 3.519 3.78 3.815a5.39 5.39 0 0 0 4.8-1.283c.779-.6 2.613.591 5.451 3.554.331.346.566.586.762.769a9.37 9.37 0 0 1-2.758 3.767 14.363 14.363 0 0 0-5.148 7.1c-.233.929.14 2.1 1.175 3.675 1.954 2.981 7.081 8.236 9.088 8.569.949.16 3.537 3.2 3.3 5.586-.017.205-.083.571-.253.689-.659.448-3.083-.248-5.223-.854l-.165-.05c-3.564-1.017-10.095-6.307-13.386-9.27-2.422-2.179-7.084-5.363-9.2-3.469-1.465 1.31-.548 3.3.423 5.413.809 1.763 1.728 3.76 1.483 5.461-.1.681-.26.849-.276.864-.085.013-1.152.078-4.248-3.016-3.016-3.018-7.5-1.578-11.472.013-2.252.9-4.291.539-7.67-.058a76.111 76.111 0 0 0-9.438-1.187c-3.394-.2-4.534-.739-4.89-1.155-.275-.32-.235-.877-.145-1.836a7.593 7.593 0 0 0-.574-4.419c-1.666-3.331-5.27-4.834-9.451-6.57-1.533-.639-3.119-1.3-4.7-2.089-5.24-2.62-8.306 1.1-10.776 4.083a28.747 28.747 0 0 1-2.495 2.771c-1.561 1.44-2.482 1.1-4.917-.105a16.772 16.772 0 0 0-5.969-1.959c-4.879-.486-6.878-1.591-11.705-4.253l-1.991-1.095c-5.864-3.2-9.892-1.022-13.128.726-.651.356-1.268.691-1.881.972a13.77 13.77 0 0 1-3.955 1.044c-.581-3.281-1.523-9.726-.992-12.116a24.35 24.35 0 0 0-.4-11.1c-.238-1.794 3.955-15.673 8.148-28.07l.178-.528-.27-.483c-7-12.457-13.849-33.27-13.849-38.294v-.266l-.108-.243c-1.112-2.492-.631-11.843-.06-20.159l80.193.378c-.4 3.948-.9 14.922 5.03 20.482.333.852 1.485 4.313-.952 6.525-12.3 11.162-15.593 34.3-14.057 38.224a1.781 1.781 0 0 0 1.683 1.308c11.62.1 23.44-.318 34.878-.729l12.251-.416 10.27 17.97.055.135a3.688 3.688 0 0 1-.463 1.658m28.227-4.261a9.686 9.686 0 0 1-5.075.927 17.149 17.149 0 0 0-5.12.446 19.762 19.762 0 0 0-5.966 2.658 10.716 10.716 0 0 1-4.824 1.941c-1.839.133-3.539-2.457-4.276-3.91a1.233 1.233 0 0 0-.133-.4l-.035-.06a2.537 2.537 0 0 0-.138-.436 2.109 2.109 0 0 0-.486-.656l-10.235-17.91-.376-.656-.747.025-13.02.441c-11.229.406-22.829.814-34.237.726-.907-3.562 2.212-24.918 13.5-35.171 4.105-3.722 1.573-9.381 1.468-9.619l-.113-.24-.2-.173c-6.415-5.7-4.286-19.736-4.266-19.879l.231-1.443h-.378c-.433-3.166-1.636-12.7-1.017-17.664.786-6.27 10.022-29.507 14.849-34.7 4.529-4.877 9.228-14.621 10.435-17.209l55.368-7.224c-.962 11.988-7.154 90.762-5.331 110.455 1.779 19.182 3.572 44.5 3.85 48.452a24.391 24.391 0 0 0-3.737 1.288m32.521-5.358c-.223 2.026-3.391 3.67-8.476 4.393-2.239.261-3.151-2.5-4.1-6.127-.624-2.377-1.127-4.256-2.665-4.536-1.7-.471-2.59 1.526-3.812 4.289-.7 1.593-1.871 4.236-2.733 4.709a24.291 24.291 0 0 1-3.036.591c-.479.068-.972.145-1.483.23-.346-4.922-2.1-29.455-3.83-48.159-1.813-19.568 4.624-101.164 5.376-110.56l63.7-8.306 18.336 71.437.07.27.18.215c1.986 2.4 7.206 9.416 7.5 12.925a25.859 25.859 0 0 1-.669 6.345 42.681 42.681 0 0 0-.887 12.342c.674 7.109 4.188 23.453 5.2 28.1l-24.064 5.185c-6.853 1.52-29.129 3.467-41.4 3.86-4.468.145-7.407 1.4-8.737 3.725-1.811 3.159.2 6.919.286 7.074-.01-.017 4.083 7.913 5.629 10.909a2.5 2.5 0 0 0-.381 1.087m179.878-18.679a14.828 14.828 0 0 1 1.808 2.961c.494 1.723-.057 8.123-1.112 10.761-1.488 3.72-.043 6.24 2.593 8.87 2.169 2.169 18.378 33.27 19.934 38.247 1.493 4.769 20.1 43.986 24.741 50.942 3.372 5.057 2.4 9.255 1.546 12.958-.238 1.027-.463 2-.589 2.961a27.311 27.311 0 0 0 .616 12.076 20.884 20.884 0 0 1-.528 12.191 49.351 49.351 0 0 0-1.741 5.676 55.862 55.862 0 0 1-3.434 10.155c-2.535 5.073-5.721 7.78-9.734 8.284-5.388.674-8.424.393-9.025-3.026-.939-5.313-7.788-16.484-9.789-19.062-1.195-1.536-3.775-2.437-6.505-3.4-2.527-.882-5.4-1.886-6.53-3.279a10.987 10.987 0 0 1-2.129-5.172 15.618 15.618 0 0 0-1.19-3.848 13.655 13.655 0 0 0-4.043-4.131c-1.731-1.358-3.524-2.763-4.331-4.514a4.912 4.912 0 0 1-.559-3.241 2.971 2.971 0 0 0-.851-2.9 27.564 27.564 0 0 0-2.315-1.889c-2.342-1.8-5.876-4.524-6.991-6.753-1.555-3.1-4.79-9.569-4.79-12.745a44.5 44.5 0 0 1 .616-6.753c.088-.621.173-1.21.241-1.768.268-2.122-1.884-3.044-3.963-3.935-1.611-.689-3.439-1.473-4.364-2.743-2.064-2.84-2.061-6.876-1.788-10.445.163-2.1-.4-6.089-.982-10.318a87.619 87.619 0 0 1-1.042-9.742l.02-2.375c.04-2.783.052-3.619-1.388-4.7a15.053 15.053 0 0 0-2.312-1.26 41.91 41.91 0 0 1-6.39-3.675 56.386 56.386 0 0 1-12.169-11.312c-3.677-4.809-8.872-6.262-14.371-7.8l-1.611-.456c-5.095-1.458-8.056-.085-10.919 1.242-.824.381-1.678.777-2.575 1.1a21.08 21.08 0 0 0-5.779 3.75c-1.816 1.473-3.695 3-5.185 3.124-3.094.261-14.391-3.071-18.04-5.318a30.874 30.874 0 0 1-5.9-5.4 38.005 38.005 0 0 0-3.812-3.77c-1.681-1.348-4.186-1.808-7.084-2.342a31.354 31.354 0 0 1-8.466-2.43c-4.516-2.257-7.73-1.157-10.566-.193a17.761 17.761 0 0 1-3.469.937l-14.473 2.029a10.958 10.958 0 0 1-2.657-.473 14.469 14.469 0 0 0-3.883-.624L952.841 691c-.028-.048-1.438-2.733-.323-4.672.862-1.49 3.159-2.34 6.643-2.455 12.372-.4 34.89-2.367 41.862-3.92l24.059-5.178c.143.689.293 1.433.446 2.209 1.077 5.436 1.711 8.091 2.865 8.97.892.674 3.908.727 40.719-.934l26.787-1.137c6.405 2.036 14.315 4.208 16.164 3.166a1.593 1.593 0 0 0 .786-1.024l.025-.1.007-.1.729-9.807c1.786-.213 7.419.433 11.274.877 2.552.291 4.962.561 6.954.719v.013l.215.927c.569 2.465 2.307 4.944 3.7 6.938m-1.909-48.667c-.421 1.7-.819 3.3-1.2 4.669-1.418 5.115-2.007 16.342-2.32 22.373l-.038.744a38.671 38.671 0 0 0 .964 10.44c-1.791-.158-3.878-.4-6.084-.646-11.214-1.288-13.651-1.375-13.995.611-.012.1-.556 7.434-.734 9.844-2.049-.008-8.534-1.691-13.992-3.434l-.21-.07-.216.01-27.019 1.153c-16.184.729-36.18 1.633-39.161 1.318-.609-1.037-1.383-4.945-1.856-7.337a120.584 120.584 0 0 0-.719-3.482c-.053-.21-4.667-21.028-5.431-29.026a40.629 40.629 0 0 1 .862-11.658 27.539 27.539 0 0 0 .7-7c-.388-4.662-6.57-12.479-7.883-14.09l-18.193-70.873 36.2-4.722 26.772-.737c-.048.246-.1.484-.15.737-.942 4.466-1.445 7.287-.541 8.745l.07.113.093.093c2.508 2.618 6.545 6.225 11.219 10.4 4.569 4.081 9.749 8.7 14.095 12.973 2.548 2.547 6.22 5.911 10.112 9.473 8.892 8.138 19.959 18.268 21.495 22.366 2.8 7.472 9.145 17.081 9.861 18.153 1.984 2.981 8.066 6.56 10.611 7.97-1.18 2.365-2.257 6.69-3.3 10.9m55.275-89.259c-6.645 3.326-7.62 8.807-8.4 13.206a29.077 29.077 0 0 1-.9 4.005 38.547 38.547 0 0 0-1.322 5.716c-.484 2.753-.9 5.127-2.465 6.856-1.463 1.606-3.126 3.341-4.89 5.175-1.656 1.728-3.371 3.519-4.942 5.235-3.158 3.442-4.4 9.216-5.067 12.322l-.15.689c-.3 1.227-5.589 6.037-15.127 12.85-3.043 2.174-4.935 5.681-6.458 8.494-.331.616-.639 1.18-.93 1.676-2.881-1.593-8.276-4.88-9.844-7.229-.7-1.047-6.891-10.435-9.594-17.642-1.754-4.662-12.592-14.581-22.153-23.338-3.87-3.539-7.525-6.883-10.042-9.4-4.4-4.318-9.6-8.965-14.19-13.063-4.551-4.065-8.489-7.585-10.944-10.122-.353-.932.451-4.762.887-6.843.123-.569.233-1.1.336-1.621 11.4-4.341 29.527-10.951 31.586-10.951.959 0 2.855-.243 5.478-.573 5.8-.734 15.508-1.961 18.549-.694 1.235.516 2.868 1.34 4.759 2.3 5.258 2.655 11.806 5.969 16.347 5.969a39.459 39.459 0 0 0 7.547-1.052c4.038-.822 8.214-1.666 11.51-.569 4.995 1.666 28.007 14.107 33.585 17.141-.952.406-1.991.879-3.161 1.465m52-100.931c1.127 4.065-4.744 9.814-8.249 13.248-2.7 2.638-3.707 3.625-3.058 4.857.534 1.007 1.739.829 2.25.729 6.928-.483 11.53.283 13.669 2.277 1.7 1.583 1.7 3.817 1.7 5.977v.634c.07 3.637-.764 6.28-2.48 7.875-2.8 2.605-7.568 2.174-10.724 1.889-2.267-.205-3.517-.321-4.2.624a1.652 1.652 0 0 0-.138 1.671c2.4 4.667-.423 7.67-2.7 10.08-1.333 1.418-2.487 2.643-1.946 4.045l.053.148.093.128c.962 1.373 3.036 1.067 6.475.561 1.58-.23 3.374-.493 5.233-.606a4.955 4.955 0 0 1 3.865 1.773 3.3 3.3 0 0 1 .722 2.127c-.376.7-3.494 3.174-8.311 5.581a58.364 58.364 0 0 1-7.444 3.028 138.121 138.121 0 0 0-5.766 2.137c-4.762 1.909-6.7 6.911-8.256 10.929a36.242 36.242 0 0 1-1.641 3.82c-.573 1.077-1.095 2.174-1.6 3.229-1.528 3.2-2.968 6.217-5.578 8.226a14.684 14.684 0 0 1-5.278 2.467c-.8.253-1.678.529-2.68.889a1.219 1.219 0 0 0-.423-.406c-1.195-.654-29.347-16.031-35.221-17.985-3.93-1.313-8.439-.4-12.8.486a38.052 38.052 0 0 1-7.051 1c-3.947 0-10.46-3.3-15.217-5.7-1.933-.977-3.607-1.824-4.922-2.372-3.379-1.408-11.309-.559-19.828.518-2.34.3-4.363.554-5.165.554-3.144 0-27.546 9.236-32.927 11.287l-26.749.736c.1-.974.183-2.019.271-3.114.21-2.643.561-7.064 1.192-7.818a139.923 139.923 0 0 1 17.942-11.109c.526-.263 1.15-.549 1.874-.882 3.682-1.691 9.25-4.243 10.879-7.507 1.728-3.462 3.852-5.932 5.686-6.62a42.342 42.342 0 0 0 4.795-2.628c2.292-1.358 6.129-3.632 7.068-3.667a.3.3 0 0 1-.073-.005 6.844 6.844 0 0 0 6.846-4.2c.989-2.229 3.336-9.353 4.123-11.755l5.856-.8 49.414-7c.09-.018 74.014-15.971 74.014-15.971l.06-.015.063-.02 15.743-5.125c.183.586.366 1.18.539 1.776m-26.907-52.069c1.32.376 3.782 3.011 4.967 4.281.335.356.626.666.854.892a5.515 5.515 0 0 1 .032 2.034 17.959 17.959 0 0 0 .208 5.446c.8 3.74-.566 10.11-.581 10.17l-.075.356.123.338c1.037 2.888 2.141 6.159 2.45 7.357a18.076 18.076 0 0 1-1.9.892 26.36 26.36 0 0 0-2.595 1.232 2.085 2.085 0 0 0-1.162 1.826c-.015 1.671 1.949 3.191 4.9 4.962 2.282 1.368 7.182-1.811 9.18-3.239.884-.629 3.2.058 4.707.786a97.485 97.485 0 0 1 4.471 10.586l-15.668 5.1-73.859 15.938c.088-.018-49.321 6.986-49.321 6.986l-51.145 7.009c2.329-2.244 5.681-5.488 7.121-6.926a26.78 26.78 0 0 0 3.259-4.869c1.769-3.026 3.965-6.793 6.43-8.6 3.7-2.715 11.134-9.789 13.531-12.1 1.859 1.345 6.31 4.243 10.024 4.243 2.863 0 7.224-1.405 11.077-2.643a37.837 37.837 0 0 1 4.97-1.413c2.94-.331 15.881-5.679 18.922-8.414s6.994-10.8 7.63-14.611c.5-3.018 3.474-17.95 4.178-21.474l4.464-1.24.511-.145.255-.466 8.912-16.389c8.855-11 9.576-12.807 9.458-13.574.258-1.08 2.745-4.381 4.249-4.381 1.358 0 3.6.078 5.761.155 1.894.07 3.68.135 4.649.135 1.949 0 3.507-1.8 4.3-2.946a26.351 26.351 0 0 1 4.025 1.608c.9.541 5.4 4.742 8.424 7.635-.616 1.7-1.653 5.606.461 8.514a15.6 15.6 0 0 1 1.34 2.37c1.085 2.212 2.3 4.682 6.468 6.215l-.075.218c1.225.564 12.008 5.553 14.07 6.144m29.831-23.268c.536 2.407 1.272 6.44 1.087 7.715-.256 1.816-2.382 6.064-5.07 11.442-2.084 4.171-1.826 6.771-1.52 9.789a33.894 33.894 0 0 1 .218 5.208c-.2 4.251-3.82 8.87-5.894 9.246-.281.05-.466.048-.674-.428-1.623-3.792-.717-8.927.085-13.461.644-3.645-.554-6.52-1.821-9.561a39.431 39.431 0 0 1-1.676-4.584c-1.325-4.769-4.656-6.169-7.6-7.407-.706-.3-1.37-.579-2.016-.9-2.219-1.11-2.066-1.986-1.565-4.9.07-.418.148-.847.215-1.31.451-2.921-.08-4.151-1.047-6.377-.436-1.009-.979-2.264-1.611-4.06-.734-2.693.015-6.057.624-8.762.648-2.9 1.21-5.406-.777-6.167a2.06 2.06 0 0 0-1.8.17c-2.633 1.5-4.992 9.584-5.345 11.314-1.014 2.187-1.175 8.865-.914 11.227.285 2.568 2.016 8.4 3.449 10.187.744.927.824 4.306-.834 6.2-.854.974-4.141.9-6.878.5l.01-.03c-4.574-1.147-5.558-3.149-6.7-5.466a17.7 17.7 0 0 0-1.561-2.738c-1.826-2.512.1-6.783.118-6.828l.383-.812-.646-.624c-1.32-1.27-7.986-7.662-9.481-8.562a32.187 32.187 0 0 0-5.24-2.072c-3.013-2.472-7.515-6.8-8.84-9.549l46.215-11.277 4.21 10.969c8.284 21.772 9.438 24.28 10.441 24.813 1.443.684 3.775-.316 9.158-2.933.9-.436 1.729-.834 2.518-1.2.3.509.566.924.772 1.228m-6.039-10.949c.959.481 3.767 3.777 3.662 4.749a5.453 5.453 0 0 0 .488 2.73c-.791.366-1.615.764-2.495 1.192-2.144 1.042-5.606 2.72-6.818 2.873-1.31-2.274-5.924-14.4-9.343-23.393l-4.353-11.342 3.692-4.672 1.17-.468c.819 3.97 3.276 13.945 7.883 17.231-.15.4-.258.746-.323.972l-.133.5.255.451c2.2 3.848 5.08 8.559 6.315 9.178m15.57-19.756c-2.157 6.643-3.74 9.794-5.433 10.846-1.375.005-7.016-2.67-9.458-3.83a29.217 29.217 0 0 0-3.276-1.453l-.155-.04h-.158a2.6 2.6 0 0 0-1.929.944c-3.572-2.768-6-11.941-6.839-16.229a62.31 62.31 0 0 0 7.92-6.969c3.154-3.417 2.751-9.168-1.235-17.582a66.678 66.678 0 0 0-6.743-10.781l3.447-19.626 27.058 4.822 1.34 11.8h.007a27.609 27.609 0 0 0-.27 6.911c.015.185 1.16 11.094 1.445 15.928.273 4.629-3.146 17.832-5.721 25.257m46.691-86.8a76.475 76.475 0 0 0-8.752 3.364 103.767 103.767 0 0 0-9.028 5.4c-2.592 1.661-5.042 3.231-6.878 4.148-3.492 1.746-5.876 6.28-5.18 8.522a1.893 1.893 0 0 0 2.154 1.36c1.3-.185 4.043-1.743 8.076-4.1 1.578-.924 3.515-2.051 4.058-2.254h.08l.228-.093c.163-.063.456-.208 1.16-.561 10.773-5.368 13.466-5.506 14.115-5.335a2.312 2.312 0 0 1-.145 1.358c-.974 2.8-5.04 6.32-6.864 7.159-1 .4-4.549 2.953-10.27 7.1l-5.551 4c-2.738 1.931-8.476 4.2-17.048 6.728l-1.26-11.074c-.02-.561-.268-7.515 0-15.177.256-7.141-.4-9.175-2.57-15.908l-1.247-3.9a30.7 30.7 0 0 1-.919-3.722c5.213-1.864 29.3-10.39 40.271-12.81l7.725 25.044c-.711.245-1.438.5-2.159.744m12.111-16.715-.148.025c-.228 4.569-1.312 11.613-3 12.965a18.573 18.573 0 0 1-4.441 2.129l-7.607-24.665a15.152 15.152 0 0 1 1.568-.168c8.211-.291 11.688-.15 13.005 2.492 1.125 2.247.849 5.611.626 7.222m2.3-29.775c-1.856 1.646-3.339 4.479-2.582 6.706.283.827 1.125 2.244 3.612 2.422 2.918.205 6.03 2.916 6.981 3.94l.168.178.22.1a23.4 23.4 0 0 1 2.127 1.23c2.352 1.463 5.017 3.126 7.232 1.553 1.212-.734 2.282-2.465 3.316-4.138.644-1.045 1.839-2.968 2.4-3.136l.03.02c.245.19.679 1.085.674 3.159-.01 3.955-1.666 9.644-3.865 11.335-3.569 2.748-5.36 4.128-13.1 5.846-4.4.977-6.252.564-6.946.26.226-2.046.338-5.476-.947-8.043-2.172-4.343-7.695-4.148-15.337-3.875-7.372.263-37.455 10.874-44.594 13.424a60.177 60.177 0 0 1 .215-10.525 146.332 146.332 0 0 0 .548-14.972c0-.158-.015-.311-.017-.466a12.058 12.058 0 0 0 9.02.8 71.925 71.925 0 0 1 10.723-2.507c2.247-.418 4.8-.889 7.635-1.5 8.211-1.758 19.142-8.206 21.91-10.358 1.9-1.483 4.7-3.414 7.74-3.95.223.862.614 1.959 1.085 3.266.954 2.653 2.936 8.176 1.754 9.228m44.254-96.876c-.681.436-1.225.782-1.6 1.027-1.365.914-2.53 2.971-3.882 5.355-1.6 2.823-3.419 6.024-5.611 7.342a9.792 9.792 0 0 1-4.912 1.012 3.692 3.692 0 0 0-2.392.481l-.285.2-.143.321c-2.973 6.756-7.134 14.526-8.672 15.295-2.425 1.212-5.611 4.491-8.978 7.963l-2.918 2.973c-4.972 4.972-5.283 21.832-5.283 22 0 .4-.348 2.577-.7 4.749a93.261 93.261 0 0 1-5.5-1.653c-3.692-1.235-5.844-7.267-5.862-7.324 0-.005-16.384-46.423-18.794-53.254.333-.331.649-.664.939-.989 3.7-4.236 6.094-10.871 7.527-20.893l1.575-10.373c.9-5.756 1.831-11.708 2.19-15.132a28.064 28.064 0 0 1 2.414-7.472c1.378-3.256 2.8-6.623 2.8-10.012 0-5.37 1.846-8.324 4.642-12.8l.083-.13c2.062-3.3 15.5-2.858 21.236-2.67 1.275.04 2.374.078 3.161.078 4.246 0 6.805 8.186 7.77 11.269 1.445 4.624 3.993 16.044 3.993 18.428 0 3.1 3.219 10.48 9.368 13.559 3.224 1.608 6.63 3.589 9.639 5.33 2.377 1.38 4.429 2.567 5.979 3.344 2.385 1.192 4.075 7.9 4.519 12.289-.085.9-2.3 3.319-12.312 9.686M940.477 697.857c.055.005.1.03.153.04.04.008.075.005.12.015Zm87.919-11.9Z"/></svg>